<svg width="667" height="117" viewBox="0 0 667 117" fill="none" xmlns="http://www.w3.org/2000/svg">
<g clip-path="url(#clip0_2010_98)">
<path fill-rule="evenodd" clip-rule="evenodd" d="M744.096 117H295.873L252.968 73.8723H153.321L106.135 25.7736H5.42912V25.057H106.488L153.674 73.1558H253.321L296.248 116.283H743.743" fill="#77C8D6"/>
<path fill-rule="evenodd" clip-rule="evenodd" d="M502.361 53.3386L303.862 53.3162H63.4077V52.5996H303.509L502.008 52.622" fill="#77C8D6"/>
<path fill-rule="evenodd" clip-rule="evenodd" d="M758 0.895694H242.331L205.451 37.9326H118.738V37.0369H205.098L241.977 0H758" fill="#77C8D6"/>
<path fill-rule="evenodd" clip-rule="evenodd" d="M622.489 25.8856L301.015 25.7736H178.482V25.057H301.368L622.842 24.9899" fill="#77C8D6"/>
<path fill-rule="evenodd" clip-rule="evenodd" d="M312.381 117H279.386L236.305 73.8724L236.835 73.335L279.74 116.283H312.381V117Z" fill="#77C8D6"/>
<path d="M183.646 25.4154C183.646 26.4902 183.293 27.3859 182.763 28.2816C182.233 29.1773 181.351 29.7147 180.446 30.2521C179.563 30.6104 178.504 30.7895 177.422 30.6104C176.341 30.4312 175.48 29.8938 174.752 29.1773C174.045 28.4607 173.516 27.565 173.339 26.4902C173.163 25.4154 173.163 24.5197 173.692 23.4448C174.045 22.5491 174.752 21.6534 175.635 21.116C176.517 20.5786 177.4 20.2203 178.482 20.2203C179.894 20.2203 181.152 20.7578 182.013 21.6534C183.072 22.7283 183.602 23.9823 183.602 25.4154H183.646Z" fill="#77C8D6"/>
<path d="M10.395 25.4154C10.395 26.4902 10.0418 27.3859 9.51216 28.2816C8.98247 29.1773 8.09969 29.7147 7.19482 30.2521C6.31201 30.6104 5.25265 30.7895 4.17122 30.6104C3.08978 30.4312 2.22906 29.8938 1.50074 29.1773C0.794499 28.4607 0.264782 27.565 0.0882208 26.4902C-0.0883406 25.4154 -0.0883325 24.5197 0.441352 23.4448C0.794474 22.5491 1.50073 21.6534 2.38354 21.116C3.26634 20.5786 4.14917 20.2203 5.23061 20.2203C5.93685 20.2203 6.64304 20.3995 7.17273 20.5786C7.87897 20.7578 8.40866 21.2952 8.76178 21.6534C9.1149 22.0117 9.64461 22.7283 9.82117 23.2657C10.3509 24.1614 10.3508 24.6988 10.3508 25.4154H10.395Z" fill="#77C8D6"/>
<path d="M68.5498 52.9578C68.5498 54.0327 68.1967 54.9284 67.667 55.8241C67.1373 56.7198 66.2545 57.2572 65.3497 57.7946C64.4669 58.1529 63.4075 58.332 62.3261 58.1529C61.2446 57.9737 60.3838 57.4363 59.6555 56.7198C58.9493 56.0032 58.4196 55.1075 58.2431 54.0327C58.0665 52.9578 58.0665 52.0621 58.5962 50.9873C58.9493 50.0916 59.6556 49.1959 60.5384 48.6585C61.4212 48.1211 62.304 47.7628 63.3854 47.7628C64.7979 47.7628 66.0559 48.3002 66.9387 49.1959C67.9981 50.2708 68.5278 51.5247 68.5278 52.9578H68.5498Z" fill="#77C8D6"/>
</g>
<defs>
<clipPath id="clip0_2010_98">
<rect width="758" height="117" fill="white" transform="matrix(-1 0 0 1 758 0)"/>
</clipPath>
</defs>
</svg>
