<svg width="590" height="684" viewBox="0 0 590 684" fill="none" xmlns="http://www.w3.org/2000/svg">
<path d="M24.904 336.26H15.9182V358.867H3V302.729H15.9182V325.431H25.227L39.9879 302.729H53.7041L35.3336 329.839L54.255 358.867H39.494L24.904 336.26Z" fill="white"/>
<path d="M71.1247 356.074C66.4513 353.566 62.7848 350.109 60.1442 345.683C57.5035 341.275 56.1737 336.317 56.1737 330.808C56.1737 325.298 57.5035 320.34 60.1442 315.933C62.7848 311.525 66.4513 308.068 71.1247 305.541C75.798 303.033 81.0603 301.78 86.8925 301.78C92.7247 301.78 97.968 303.033 102.603 305.541C107.258 308.049 110.924 311.506 113.584 315.933C116.262 320.34 117.592 325.298 117.592 330.808C117.592 336.317 116.262 341.275 113.584 345.683C110.905 350.09 107.258 353.547 102.603 356.074C97.949 358.582 92.7057 359.836 86.8925 359.836C81.0793 359.836 75.817 358.582 71.1247 356.074ZM95.8593 346.499C98.5379 344.98 100.628 342.852 102.147 340.116C103.667 337.4 104.427 334.284 104.427 330.808C104.427 327.331 103.667 324.234 102.147 321.499C100.628 318.763 98.5189 316.654 95.8593 315.116C93.1806 313.596 90.198 312.836 86.8735 312.836C83.549 312.836 80.5664 313.596 77.8877 315.116C75.2091 316.635 73.1194 318.763 71.5996 321.499C70.0798 324.215 69.3199 327.331 69.3199 330.808C69.3199 334.284 70.0798 337.381 71.5996 340.116C73.1194 342.852 75.2281 344.961 77.8877 346.499C80.5664 348.019 83.549 348.779 86.8735 348.779C90.198 348.779 93.1806 348.019 95.8593 346.499Z" fill="white"/>
<path d="M176.047 302.749V358.886H163.224V313.33H143.98L143.581 325.032C143.315 332.992 142.669 339.452 141.662 344.391C140.655 349.33 138.945 353.13 136.571 355.77C134.196 358.411 130.871 359.741 126.578 359.741C124.811 359.741 122.683 359.456 120.157 358.867L120.955 347.886C121.658 348.095 122.417 348.209 123.272 348.209C126.369 348.209 128.535 346.386 129.769 342.719C131.004 339.053 131.783 333.315 132.087 325.526L132.885 302.749H176.028H176.047Z" fill="white"/>
<path d="M239.726 302.749V358.886H226.903V313.33H207.659L207.26 325.032C206.994 332.992 206.348 339.452 205.341 344.391C204.334 349.33 202.625 353.13 200.25 355.77C197.875 358.411 194.551 359.741 190.257 359.741C188.49 359.741 186.363 359.456 183.836 358.867L184.634 347.886C185.337 348.095 186.097 348.209 186.952 348.209C190.048 348.209 192.214 346.386 193.449 342.719C194.684 339.053 195.463 333.315 195.766 325.526L196.564 302.749H239.707H239.726Z" fill="white"/>
<path d="M297.232 348.456V358.886H253.766V302.749H296.187V313.178H266.684V325.374H292.748V335.481H266.684V348.475H297.232V348.456Z" fill="white"/>
<path d="M365.623 348.285V370.493H353.597V358.867H313.988V370.493H301.962L302.038 348.285H304.28C307.643 348.171 310.017 345.721 311.423 340.914C312.81 336.108 313.665 329.231 313.988 320.302L314.634 302.749H357.777V348.304H365.642L365.623 348.285ZM323.752 338.293C322.897 342.814 321.587 346.139 319.82 348.285H344.915V313.33H325.671L325.424 321.518C325.158 328.205 324.588 333.79 323.733 338.312L323.752 338.293Z" fill="white"/>
<path d="M425.293 336.26H417.124V358.867H404.377V336.26H396.037L383.442 358.867H368.453L385.285 329.516L369.479 302.729H383.195L395.79 325.431H404.377V302.729H417.124V325.431H425.464L438.136 302.729H451.852L436.141 329.516L452.897 358.867H437.908L425.312 336.26H425.293Z" fill="white"/>
<path d="M502.594 348.456V358.886H459.128V302.749H501.549V313.178H472.046V325.374H498.11V335.481H472.046V348.475H502.594V348.456Z" fill="white"/>
<path d="M513.099 302.748H526.017V339.318L552.804 302.748H565V358.886H552.177V322.392L525.39 358.886H513.118V302.748H513.099ZM523.434 286.866H532.343C532.457 290.761 534.661 292.718 538.993 292.718C541.139 292.718 542.754 292.224 543.894 291.236C545.015 290.248 545.604 288.785 545.661 286.866H554.57C554.513 290.875 553.203 293.914 550.638 296.004C548.073 298.094 544.198 299.139 539.012 299.139C528.753 299.139 523.567 295.054 523.453 286.866H523.434Z" fill="white"/>
<path d="M77.052 467.626L76.938 419.012L53.0393 459.04H44.6805L20.7817 419.943V467.626H3.17114V386.413H18.711L49.1068 436.87L79.0277 386.413H94.5676L94.6816 467.626H77.052Z" fill="white"/>
<path d="M130.833 463.561C124.07 459.933 118.77 454.917 114.932 448.534C111.095 442.151 109.195 434.989 109.195 427.01C109.195 419.031 111.114 411.869 114.932 405.486C118.77 399.103 124.051 394.107 130.833 390.459C137.596 386.831 145.195 385.007 153.63 385.007C162.065 385.007 169.645 386.831 176.37 390.459C183.095 394.107 188.395 399.103 192.271 405.486C196.146 411.869 198.065 419.031 198.065 427.01C198.065 434.989 196.127 442.151 192.271 448.534C188.395 454.917 183.114 459.933 176.37 463.561C169.645 467.19 162.065 469.013 153.63 469.013C145.195 469.013 137.596 467.19 130.833 463.561ZM166.624 449.693C170.481 447.489 173.52 444.412 175.724 440.46C177.928 436.509 179.03 432.025 179.03 427.01C179.03 421.995 177.928 417.492 175.724 413.56C173.52 409.608 170.481 406.531 166.624 404.327C162.749 402.124 158.418 401.022 153.63 401.022C148.843 401.022 144.511 402.124 140.636 404.327C136.76 406.531 133.74 409.608 131.536 413.56C129.332 417.511 128.231 421.995 128.231 427.01C128.231 432.025 129.332 436.528 131.536 440.46C133.74 444.412 136.779 447.489 140.636 449.693C144.492 451.897 148.824 452.999 153.63 452.999C158.437 452.999 162.749 451.897 166.624 449.693Z" fill="white"/>
<path d="M228.499 463.618C221.812 460.028 216.55 455.031 212.731 448.648C208.913 442.265 206.994 435.065 206.994 427.01C206.994 418.955 208.913 411.755 212.731 405.372C216.55 398.989 221.812 394.012 228.499 390.402C235.186 386.812 242.709 385.007 251.068 385.007C258.097 385.007 264.461 386.242 270.16 388.711C275.84 391.181 280.628 394.734 284.484 399.388L272.421 410.52C266.931 404.175 260.13 401.003 251.999 401.003C246.964 401.003 242.481 402.104 238.549 404.308C234.597 406.512 231.538 409.589 229.335 413.541C227.131 417.492 226.029 421.976 226.029 426.991C226.029 432.006 227.131 436.509 229.335 440.441C231.538 444.393 234.616 447.47 238.549 449.674C242.5 451.878 246.983 452.98 251.999 452.98C260.111 452.98 266.931 449.769 272.421 443.348L284.484 454.48C280.609 459.192 275.821 462.801 270.103 465.271C264.385 467.741 258.002 468.975 250.954 468.975C242.671 468.975 235.186 467.171 228.499 463.58V463.618Z" fill="white"/>
<path d="M328.217 434.913H315.222V467.626H296.548V386.413H315.222V419.24H328.672L350.026 386.413H369.859L343.3 425.623L370.676 467.626H349.323L328.217 434.913Z" fill="white"/>
<path d="M447.121 432.462C449.743 435.787 451.072 439.89 451.072 444.754C451.072 451.954 448.356 457.558 442.904 461.566C437.451 465.594 429.662 467.607 419.518 467.607H379.49V386.394H417.314C426.756 386.394 434.089 388.217 439.351 391.846C444.613 395.493 447.235 400.661 447.235 407.386C447.235 411.413 446.228 414.947 444.214 418.005C442.201 421.064 439.37 423.476 435.742 425.262C440.7 426.744 444.48 429.138 447.121 432.462ZM398.165 420.057H415.68C419.784 420.057 422.88 419.221 424.951 417.568C427.041 415.916 428.086 413.446 428.086 410.197C428.086 406.949 427.022 404.593 424.894 402.883C422.766 401.193 419.689 400.338 415.68 400.338H398.165V420.057ZM432.037 443.253C432.037 436.528 427.63 433.165 418.815 433.165H398.165V453.701H418.815C427.63 453.701 432.037 450.225 432.037 443.272V443.253Z" fill="white"/>
<path d="M528.031 419.715C533.331 424.122 535.972 430.658 535.972 439.32C535.972 448.534 533.046 455.544 527.214 460.369C521.363 465.214 513.156 467.626 502.555 467.626H465.89V386.413H484.565V413.085H505.215C515.113 413.085 522.712 415.289 528.012 419.696L528.031 419.715ZM512.947 450.111C515.683 447.717 517.069 444.241 517.069 439.681C517.069 431.246 511.883 427.029 501.529 427.029H484.584V453.701H501.529C506.393 453.701 510.211 452.505 512.947 450.111ZM546.306 386.432H564.981V467.645H546.306V386.432Z" fill="white"/>
<path d="M45.8617 209.813V225.808H37.1945V217.428H8.66723V225.808H0L0.0573989 209.813H1.6837C4.11359 209.736 5.81642 207.957 6.83047 204.494C7.82538 201.031 8.45677 196.076 8.68636 189.647L9.14555 177H40.1983V209.813H45.8617ZM15.7082 202.619C15.0959 205.872 14.1393 208.263 12.8765 209.813H30.9571V184.615H17.1049L16.9327 190.508C16.7413 195.329 16.3395 199.347 15.7273 202.6L15.7082 202.619Z" fill="white"/>
<path d="M83.458 209.928V217.428H52.1565V177H82.7118V184.5H61.4551V193.282H80.2245V200.553H61.4551V209.909H83.458V209.928Z" fill="white"/>
<path d="M128.095 177V217.428H118.739V200.859H100.372V217.428H91.0156V177H100.372V192.938H118.739V177H128.095Z" fill="white"/>
<path d="M169.135 193.569C171.776 195.769 173.096 199.022 173.096 203.327C173.096 207.919 171.642 211.401 168.734 213.812C165.825 216.223 161.731 217.428 156.469 217.428H138.216V177H147.515V190.278H157.79C162.726 190.278 166.495 191.369 169.135 193.569ZM161.635 208.703C162.994 207.517 163.682 205.776 163.682 203.499C163.682 199.309 161.1 197.204 155.934 197.204H147.496V210.483H155.934C158.364 210.483 160.258 209.89 161.616 208.684L161.635 208.703Z" fill="white"/>
<path d="M41.0018 238.302V278.73H31.7031V245.917H13.4503V278.73H4.15167V238.302H41.0018Z" fill="white"/>
<path d="M82.3673 271.211V278.711H51.0657V238.283H81.6211V245.783H60.3644V254.565H79.1338V261.836H60.3644V271.192H82.3673V271.211Z" fill="white"/>
<path d="M116.749 240.082C119.39 241.268 121.418 242.971 122.834 245.171C124.249 247.371 124.976 249.973 124.976 252.977C124.976 255.981 124.269 258.526 122.834 260.745C121.418 262.965 119.371 264.648 116.749 265.834C114.109 267.002 111.009 267.595 107.412 267.595H99.2618V278.749H89.9058V238.321H107.412C110.99 238.321 114.109 238.914 116.749 240.12V240.082ZM113.305 258.124C114.759 256.919 115.506 255.197 115.506 252.958C115.506 250.719 114.779 248.94 113.305 247.735C111.851 246.529 109.708 245.917 106.896 245.917H99.2809V259.961H106.896C109.708 259.961 111.851 259.348 113.305 258.143V258.124Z" fill="white"/>
<path d="M164.831 261.223C166.132 262.888 166.801 264.916 166.801 267.346C166.801 270.924 165.443 273.717 162.726 275.726C160.009 277.735 156.125 278.73 151.093 278.73H131.176V238.302H150.002C154.709 238.302 158.364 239.201 160.985 241.019C163.606 242.837 164.907 245.4 164.907 248.768C164.907 250.777 164.41 252.537 163.415 254.048C162.42 255.579 161.004 256.765 159.205 257.665C161.674 258.392 163.549 259.597 164.869 261.242L164.831 261.223ZM140.455 255.043H149.18C151.227 255.043 152.758 254.622 153.791 253.8C154.824 252.977 155.36 251.752 155.36 250.126C155.36 248.5 154.824 247.333 153.772 246.491C152.719 245.649 151.189 245.228 149.18 245.228H140.455V255.043ZM157.311 266.6C157.311 263.251 155.111 261.568 150.73 261.568H140.455V271.785H150.73C155.111 271.785 157.311 270.044 157.311 266.581V266.6Z" fill="white"/>
<path d="M182.127 276.702C178.759 274.884 176.119 272.397 174.206 269.221C172.292 266.045 171.355 262.467 171.355 258.506C171.355 254.546 172.312 250.968 174.206 247.792C176.119 244.616 178.74 242.129 182.127 240.311C185.494 238.493 189.282 237.594 193.473 237.594C197.663 237.594 201.451 238.493 204.799 240.311C208.148 242.129 210.788 244.616 212.72 247.792C214.653 250.968 215.609 254.546 215.609 258.506C215.609 262.467 214.653 266.045 212.72 269.221C210.788 272.397 208.167 274.884 204.799 276.702C201.451 278.519 197.682 279.419 193.473 279.419C189.263 279.419 185.494 278.519 182.127 276.702ZM199.94 269.795C201.872 268.704 203.383 267.174 204.474 265.203C205.565 263.232 206.119 261.013 206.119 258.506C206.119 256 205.565 253.761 204.474 251.81C203.383 249.839 201.872 248.308 199.94 247.218C198.007 246.127 195.864 245.572 193.473 245.572C191.081 245.572 188.938 246.127 187.006 247.218C185.073 248.308 183.562 249.839 182.471 251.81C181.381 253.78 180.826 256 180.826 258.506C180.826 261.013 181.381 263.251 182.471 265.203C183.562 267.174 185.073 268.704 187.006 269.795C188.938 270.885 191.081 271.44 193.473 271.44C195.864 271.44 198.007 270.885 199.94 269.795Z" fill="white"/>
<path d="M238.473 262.429H232.006V278.711H222.707V238.283H232.006V254.623H238.703L249.321 238.283H259.194L245.973 257.799L259.596 278.711H248.977L238.473 262.429Z" fill="white"/>
<path d="M301.191 238.302L283.971 270.292C282.307 273.373 280.317 275.707 278.002 277.276C275.668 278.845 273.142 279.648 270.406 279.648C268.282 279.648 266.101 279.189 263.824 278.271L266.082 271.172C267.708 271.67 269.048 271.919 270.119 271.919C271.267 271.919 272.319 271.632 273.238 271.077C274.156 270.522 275.017 269.642 275.782 268.456L276.127 267.996L260.189 238.302H270.176L280.91 260.018L292.007 238.302H301.191Z" fill="white"/>
<path d="M332.473 240.082C335.114 241.268 337.142 242.971 338.558 245.171C339.974 247.371 340.701 249.973 340.701 252.977C340.701 255.981 339.993 258.526 338.558 260.745C337.142 262.965 335.095 264.648 332.473 265.834C329.833 267.002 326.734 267.595 323.137 267.595H314.986V278.749H305.63V238.321H323.137C326.714 238.321 329.833 238.914 332.473 240.12V240.082ZM329.029 258.124C330.484 256.919 331.23 255.197 331.23 252.958C331.23 250.719 330.503 248.94 329.029 247.735C327.575 246.529 325.432 245.917 322.62 245.917H315.005V259.961H322.62C325.432 259.961 327.575 259.348 329.029 258.143V258.124Z" fill="white"/>
<path d="M355.395 276.721C352.065 274.922 349.444 272.454 347.531 269.278C345.618 266.102 344.68 262.505 344.68 258.506C344.68 254.507 345.637 250.91 347.531 247.734C349.444 244.558 352.046 242.071 355.395 240.292C358.724 238.493 362.474 237.613 366.626 237.613C370.127 237.613 373.303 238.225 376.135 239.469C378.966 240.693 381.339 242.473 383.271 244.788L377.263 250.336C374.527 247.18 371.141 245.591 367.104 245.591C364.597 245.591 362.359 246.146 360.407 247.237C358.437 248.327 356.906 249.858 355.815 251.829C354.725 253.8 354.17 256.019 354.17 258.525C354.17 261.032 354.725 263.27 355.815 265.222C356.906 267.193 358.437 268.723 360.407 269.814C362.378 270.904 364.597 271.459 367.104 271.459C371.141 271.459 374.527 269.852 377.263 266.657L383.271 272.205C381.339 274.559 378.966 276.338 376.116 277.582C373.265 278.806 370.089 279.438 366.587 279.438C362.474 279.438 358.743 278.538 355.414 276.759L355.395 276.721Z" fill="white"/>
<path d="M426.474 238.302V278.73H417.118V262.161H398.75V278.73H389.394V238.302H398.75V254.24H417.118V238.302H426.474Z" fill="white"/>
<path d="M436.576 238.302H445.874V264.648L465.16 238.302H473.942V278.73H464.701V252.441L445.415 278.73H436.576V238.302Z" fill="white"/>
<path d="M499.657 262.429H493.19V278.711H483.891V238.283H493.19V254.623H499.887L510.505 238.283H520.378L507.157 257.799L520.78 278.711H510.161L499.657 262.429Z" fill="white"/>
<path d="M551.737 270.063H532.968L529.39 278.73H519.804L537.827 238.302H547.069L565.149 278.73H555.334L551.756 270.063H551.737ZM548.79 262.964L542.381 247.486L535.971 262.964H548.79Z" fill="white"/>
<path opacity="0.2" d="M19.1496 140.149V142.441H1.35205V117.266H18.6102V119.558H4.01012V128.515H17.0308V130.788H4.01012V140.129H19.1496V140.149ZM5.72438 113.973C5.4162 113.684 5.28137 113.318 5.28137 112.855C5.28137 112.393 5.43546 112.066 5.72438 111.757C6.03256 111.449 6.39853 111.314 6.82228 111.314C7.22677 111.314 7.59273 111.469 7.90091 111.757C8.2091 112.066 8.36319 112.432 8.36319 112.855C8.36319 113.279 8.2091 113.645 7.92018 113.953C7.61199 114.261 7.24603 114.396 6.82228 114.396C6.39853 114.396 6.03256 114.261 5.72438 113.973ZM12.1192 113.973C11.811 113.664 11.6761 113.298 11.6761 112.875C11.6761 112.451 11.8302 112.085 12.1384 111.777C12.4466 111.469 12.8126 111.334 13.217 111.334C13.6408 111.334 14.0068 111.488 14.3149 111.777C14.6231 112.066 14.758 112.451 14.758 112.875C14.758 113.337 14.6039 113.703 14.3149 113.992C14.0068 114.281 13.6601 114.416 13.217 114.416C12.774 114.416 12.4273 114.261 12.1192 113.973Z" fill="white"/>
<path opacity="0.2" d="M62.1017 118.711C64.0279 119.809 65.5302 121.35 66.6089 123.295C67.7068 125.24 68.2461 127.436 68.2461 129.863C68.2461 132.29 67.7068 134.466 66.6089 136.431C65.511 138.377 64.0086 139.917 62.1017 141.015C60.1756 142.113 58.0376 142.672 55.6684 142.672C53.2993 142.672 51.3731 142.171 49.524 141.169C47.675 140.168 46.1918 138.762 45.0747 136.97C43.9382 135.179 43.3219 133.137 43.1678 130.884H37.9865V142.46H35.3669V117.285H37.9865V128.476H43.2063C43.3989 126.3 44.0538 124.335 45.2095 122.601C46.3459 120.868 47.829 119.5 49.6589 118.537C51.4887 117.574 53.4919 117.073 55.7069 117.073C58.0761 117.073 60.2334 117.632 62.1402 118.73L62.1017 118.711ZM60.7342 138.935C62.2365 138.03 63.4307 136.797 64.2975 135.218C65.1643 133.638 65.588 131.847 65.588 129.863C65.588 127.879 65.1643 126.088 64.2975 124.508C63.4307 122.929 62.2558 121.677 60.7342 120.791C59.2318 119.886 57.5368 119.443 55.6684 119.443C53.8001 119.443 52.1436 119.886 50.6412 120.791C49.1388 121.696 47.9446 122.929 47.0779 124.508C46.2111 126.088 45.7873 127.879 45.7873 129.863C45.7873 131.847 46.2111 133.638 47.0779 135.218C47.9446 136.797 49.1196 138.049 50.6412 138.935C52.1436 139.84 53.8386 140.283 55.6684 140.283C57.4982 140.283 59.2318 139.84 60.7342 138.935Z" fill="white"/>
<path opacity="0.2" d="M102.243 128.284C103.804 129.632 104.593 131.597 104.593 134.178C104.593 136.759 103.765 138.935 102.089 140.341C100.433 141.748 98.0252 142.441 94.8856 142.441H84.8889V117.266H87.5085V126.261H95.4249C98.3911 126.261 100.664 126.936 102.243 128.284ZM100.125 138.781C101.338 137.741 101.935 136.22 101.935 134.216C101.935 130.364 99.5661 128.419 94.8085 128.419H87.5085V140.322H94.8085C97.1391 140.322 98.9112 139.802 100.105 138.781H100.125Z" fill="white"/>
<path d="M145.806 119.578H136.965V142.441H134.346V119.578H125.505V117.286H145.826V119.578H145.806Z" fill="white"/>
<path d="M179.687 131.558C180.593 132.598 181.055 133.966 181.055 135.642C181.055 137.818 180.284 139.494 178.744 140.669C177.203 141.844 174.93 142.422 171.925 142.422H160.773V117.247H171.232C173.909 117.247 176.008 117.806 177.53 118.904C179.052 120.001 179.803 121.6 179.803 123.68C179.803 125.086 179.437 126.281 178.724 127.263C178.012 128.245 176.991 128.958 175.7 129.44C177.453 129.805 178.782 130.499 179.687 131.539V131.558ZM163.392 128.669H171.097C173.042 128.669 174.525 128.265 175.585 127.475C176.625 126.685 177.145 125.529 177.145 124.027C177.145 122.525 176.625 121.369 175.585 120.579C174.545 119.79 173.042 119.385 171.097 119.385H163.392V128.669ZM178.416 135.468C178.416 132.309 176.24 130.73 171.906 130.73H163.373V140.322H171.906C176.24 140.322 178.416 138.704 178.416 135.468Z" fill="white"/>
<path d="M202.242 140.996C200.219 139.879 198.64 138.358 197.503 136.412C196.367 134.467 195.789 132.29 195.789 129.863C195.789 127.436 196.367 125.26 197.503 123.314C198.64 121.369 200.219 119.847 202.242 118.73C204.264 117.613 206.518 117.054 209.022 117.054C211.526 117.054 213.76 117.613 215.763 118.711C217.766 119.809 219.346 121.35 220.501 123.295C221.657 125.241 222.235 127.436 222.235 129.863C222.235 132.29 221.657 134.467 220.501 136.431C219.346 138.377 217.766 139.918 215.763 141.016C213.76 142.113 211.506 142.672 209.022 142.672C206.537 142.672 204.264 142.113 202.242 140.996ZM214.415 138.955C216.013 138.049 217.285 136.817 218.19 135.218C219.095 133.619 219.558 131.847 219.558 129.883C219.558 127.918 219.095 126.146 218.19 124.547C217.285 122.948 216.013 121.716 214.415 120.81C212.816 119.905 211.006 119.462 209.022 119.462C207.038 119.462 205.227 119.905 203.609 120.81C201.991 121.716 200.72 122.948 199.795 124.547C198.871 126.146 198.409 127.918 198.409 129.883C198.409 131.847 198.871 133.619 199.795 135.218C200.72 136.817 201.991 138.069 203.609 138.955C205.227 139.86 207.038 140.303 209.022 140.303C211.006 140.303 212.816 139.86 214.415 138.955Z" fill="white"/>
<path d="M256.713 117.266V142.441H254.093V134.813H246.581C246.235 134.813 245.772 134.794 245.137 134.736L239.859 142.441H237.028L242.748 134.274C240.899 133.716 239.493 132.752 238.511 131.346C237.529 129.94 237.028 128.226 237.028 126.184C237.028 123.353 237.914 121.157 239.705 119.597C241.496 118.037 243.904 117.266 246.947 117.266H256.732H256.713ZM241.477 130.884C242.691 132.001 244.463 132.56 246.774 132.56H254.074V119.578H247.024C244.675 119.578 242.864 120.136 241.574 121.253C240.283 122.371 239.647 123.989 239.647 126.127C239.647 128.265 240.244 129.786 241.458 130.884H241.477Z" fill="white"/>
<path opacity="0.2" d="M301.091 117.266V142.441H298.51V132.021C295.775 133.195 293.136 133.773 290.555 133.773C287.608 133.773 285.316 133.061 283.659 131.616C282.022 130.171 281.194 128.168 281.194 125.568V117.266H283.813V125.279C283.813 127.224 284.43 128.727 285.643 129.805C286.857 130.884 288.571 131.423 290.786 131.423C293.309 131.423 295.871 130.826 298.491 129.632V117.266H301.072H301.091Z" fill="white"/>
<path opacity="0.2" d="M337.245 128.284C338.805 129.632 339.595 131.597 339.595 134.178C339.595 136.759 338.766 138.935 337.091 140.341C335.415 141.748 333.026 142.441 329.887 142.441H319.89V117.266H322.51V126.261H330.426C333.392 126.261 335.665 126.936 337.245 128.284ZM335.126 138.781C336.339 137.741 336.936 136.22 336.936 134.216C336.936 130.364 334.567 128.419 329.81 128.419H322.51V140.322H329.81C332.14 140.322 333.912 139.802 335.107 138.781H335.126ZM343.948 117.266H346.567V142.441H343.948V117.266Z" fill="white"/>
<path opacity="0.2" d="M388.749 137.683C386.38 139.59 383.087 140.611 378.849 140.727V143.308H376.364V140.727C372.127 140.572 368.814 139.571 366.464 137.664C364.095 135.776 362.92 133.157 362.92 129.825C362.92 126.492 364.095 123.873 366.464 121.985C368.833 120.098 372.127 119.077 376.364 118.923V116.399H378.849V118.923C383.067 119.057 386.361 120.098 388.73 122.004C391.099 123.911 392.293 126.512 392.293 129.825C392.293 133.138 391.119 135.776 388.749 137.683ZM368.313 136.104C370.22 137.606 372.897 138.434 376.345 138.608V121.099C372.84 121.234 370.162 122.062 368.275 123.565C366.387 125.067 365.443 127.147 365.443 129.844C365.443 132.54 366.387 134.621 368.294 136.123L368.313 136.104ZM386.881 136.104C388.769 134.601 389.732 132.502 389.732 129.805C389.732 127.109 388.788 125.029 386.881 123.507C384.974 122.004 382.297 121.176 378.849 121.061V138.569C382.335 138.434 385.013 137.606 386.9 136.085L386.881 136.104Z" fill="white"/>
<path d="M229.534 184.489V209.663H226.915V186.8H210.986V209.663H208.366V184.489H229.554H229.534Z" fill="white"/>
<path d="M266.998 186.781C268.828 188.322 269.733 190.421 269.733 193.118C269.733 195.814 268.828 197.914 266.998 199.436C265.168 200.957 262.664 201.728 259.447 201.728H252.687V209.683H250.029V184.508H259.447C262.664 184.508 265.168 185.279 266.998 186.8V186.781ZM265.091 197.741C266.401 196.643 267.075 195.102 267.075 193.118C267.075 191.134 266.42 189.516 265.091 188.418C263.781 187.32 261.874 186.781 259.37 186.781H252.687V199.359H259.37C261.855 199.359 263.762 198.819 265.091 197.721V197.741Z" fill="white"/>
<path d="M291.826 208.199C289.804 207.082 288.224 205.56 287.088 203.615C285.952 201.67 285.374 199.493 285.374 197.066C285.374 194.639 285.952 192.463 287.088 190.517C288.224 188.572 289.804 187.05 291.826 185.933C293.849 184.816 296.102 184.257 298.606 184.257C301.11 184.257 303.345 184.816 305.348 185.914C307.351 187.012 308.93 188.553 310.086 190.498C311.242 192.443 311.82 194.639 311.82 197.066C311.82 199.493 311.242 201.67 310.086 203.634C308.93 205.58 307.351 207.121 305.348 208.218C303.345 209.316 301.091 209.875 298.606 209.875C296.122 209.875 293.849 209.316 291.826 208.199ZM304 206.157C305.598 205.252 306.869 204.019 307.775 202.421C308.68 200.822 309.142 199.05 309.142 197.085C309.142 195.121 308.68 193.349 307.775 191.75C306.869 190.151 305.598 188.919 304 188.013C302.401 187.108 300.59 186.665 298.606 186.665C296.622 186.665 294.812 187.108 293.194 188.013C291.576 188.919 290.305 190.151 289.38 191.75C288.456 193.349 287.993 195.121 287.993 197.085C287.993 199.05 288.456 200.822 289.38 202.421C290.305 204.019 291.576 205.271 293.194 206.157C294.812 207.063 296.622 207.506 298.606 207.506C300.59 207.506 302.401 207.063 304 206.157Z" fill="white"/>
<path d="M353.579 204.887C351.209 206.793 347.916 207.814 343.678 207.93V210.511H341.193V207.93C336.956 207.776 333.643 206.774 331.293 204.867C328.924 202.98 327.749 200.36 327.749 197.028C327.749 193.696 328.924 191.076 331.293 189.189C333.662 187.301 336.956 186.28 341.193 186.126V183.603H343.678V186.126C347.896 186.261 351.19 187.301 353.559 189.208C355.928 191.115 357.123 193.715 357.123 197.028C357.123 200.341 355.948 202.98 353.579 204.887ZM333.142 203.307C335.049 204.81 337.726 205.638 341.174 205.811V188.303C337.669 188.437 334.991 189.266 333.104 190.768C331.216 192.27 330.272 194.351 330.272 197.047C330.272 199.744 331.216 201.824 333.123 203.326L333.142 203.307ZM351.71 203.307C353.598 201.805 354.561 199.705 354.561 197.009C354.561 194.312 353.617 192.232 351.71 190.71C349.803 189.208 347.126 188.38 343.678 188.264V205.773C347.164 205.638 349.842 204.81 351.729 203.288L351.71 203.307Z" fill="white"/>
<path d="M392.967 207.352V209.644H375.17V184.469H392.428V186.762H377.828V195.718H390.849V197.991H377.828V207.333H392.967V207.352Z" fill="white"/>
<path d="M415.137 208.218C413.134 207.121 411.573 205.58 410.418 203.634C409.281 201.689 408.703 199.493 408.703 197.066C408.703 194.639 409.281 192.463 410.418 190.498C411.554 188.553 413.133 187.012 415.156 185.914C417.178 184.816 419.432 184.257 421.917 184.257C423.785 184.257 425.519 184.566 427.098 185.201C428.677 185.817 430.026 186.742 431.124 187.936L429.429 189.631C427.464 187.647 424.979 186.646 421.994 186.646C420.01 186.646 418.199 187.108 416.562 188.013C414.925 188.919 413.654 190.171 412.729 191.75C411.804 193.329 411.342 195.101 411.342 197.066C411.342 199.031 411.804 200.803 412.729 202.382C413.654 203.962 414.925 205.214 416.562 206.119C418.199 207.024 420.01 207.487 421.994 207.487C425.018 207.487 427.502 206.485 429.429 204.462L431.124 206.157C430.026 207.352 428.677 208.276 427.079 208.912C425.48 209.547 423.747 209.856 421.878 209.856C419.393 209.856 417.14 209.297 415.137 208.199V208.218Z" fill="white"/>
<path d="M452.909 208.218C450.905 207.121 449.326 205.58 448.19 203.634C447.053 201.689 446.475 199.493 446.475 197.066C446.475 194.639 447.053 192.463 448.19 190.498C449.326 188.553 450.905 187.012 452.928 185.914C454.931 184.816 457.185 184.257 459.689 184.257C461.557 184.257 463.291 184.566 464.87 185.201C466.449 185.837 467.798 186.742 468.896 187.936L467.201 189.631C465.236 187.647 462.751 186.646 459.746 186.646C457.763 186.646 455.952 187.108 454.315 188.013C452.678 188.919 451.406 190.171 450.482 191.75C449.557 193.329 449.095 195.101 449.095 197.066C449.095 199.031 449.557 200.803 450.482 202.382C451.406 203.962 452.678 205.214 454.315 206.119C455.952 207.024 457.763 207.487 459.746 207.487C462.77 207.487 465.255 206.485 467.201 204.462L468.896 206.157C467.798 207.352 466.449 208.276 464.851 208.912C463.252 209.547 461.518 209.856 459.65 209.856C457.165 209.856 454.912 209.297 452.909 208.199V208.218Z" fill="white"/>
<path d="M486.404 184.489H489.024V205.349L505.126 184.489H507.534V209.663H504.914V188.842L488.812 209.663H486.404V184.489Z" fill="white"/>
<path d="M545.884 184.489V209.663H543.264V202.036H535.752C535.425 202.036 534.943 202.017 534.308 201.959L529.03 209.663H526.179L531.9 201.497C530.051 200.938 528.645 199.975 527.663 198.569C526.68 197.163 526.179 195.448 526.179 193.407C526.179 190.575 527.065 188.38 528.857 186.819C530.648 185.259 533.056 184.489 536.099 184.489H545.884ZM530.648 198.107C531.862 199.224 533.634 199.782 535.945 199.782H543.245V186.8H536.195C533.845 186.8 532.035 187.359 530.744 188.476C529.454 189.593 528.818 191.211 528.818 193.349C528.818 195.487 529.415 197.009 530.629 198.107H530.648Z" fill="white"/>
<path opacity="0.2" d="M267.948 532.218C265.926 531.101 264.347 529.579 263.21 527.634C262.074 525.688 261.496 523.512 261.496 521.085C261.496 518.658 262.054 516.481 263.21 514.536C264.347 512.591 265.926 511.069 267.948 509.952C269.971 508.835 272.244 508.276 274.728 508.276C277.213 508.276 279.467 508.835 281.47 509.933C283.473 511.03 285.053 512.571 286.208 514.517C287.364 516.462 287.942 518.658 287.942 521.085C287.942 523.512 287.364 525.688 286.208 527.653C285.053 529.598 283.473 531.139 281.47 532.237C279.467 533.335 277.213 533.894 274.728 533.894C272.244 533.894 269.971 533.335 267.948 532.218ZM280.122 530.176C281.72 529.271 282.992 528.038 283.897 526.44C284.802 524.841 285.264 523.069 285.264 521.104C285.264 519.14 284.802 517.367 283.897 515.769C282.992 514.17 281.72 512.937 280.122 512.032C278.523 511.127 276.712 510.684 274.728 510.684C272.745 510.684 270.934 511.127 269.316 512.032C267.698 512.937 266.427 514.17 265.502 515.769C264.578 517.367 264.115 519.14 264.115 521.104C264.115 523.069 264.578 524.841 265.502 526.44C266.427 528.038 267.698 529.29 269.316 530.176C270.934 531.082 272.745 531.525 274.728 531.525C276.712 531.525 278.523 531.082 280.122 530.176Z" fill="white"/>
<path opacity="0.2" d="M320.686 510.799H311.845V533.663H309.225V510.799H300.385V508.507H320.705V510.799H320.686Z" fill="white"/>
<path opacity="0.2" d="M361.443 508.508V533.682H358.881V513.535L349 530.466H347.748L337.867 513.631V533.663H335.305V508.488H337.501L348.442 527.153L359.267 508.488H361.462L361.443 508.508Z" fill="white"/>
<path opacity="0.2" d="M401.044 508.507V533.682H398.425V510.819H382.496V533.682H379.876V508.507H401.063H401.044Z" fill="white"/>
<path opacity="0.2" d="M423.715 532.218C421.693 531.101 420.113 529.579 418.977 527.634C417.84 525.688 417.262 523.512 417.262 521.085C417.262 518.658 417.821 516.481 418.977 514.536C420.113 512.591 421.693 511.069 423.715 509.952C425.737 508.835 428.01 508.276 430.495 508.276C432.98 508.276 435.233 508.835 437.236 509.933C439.24 511.03 440.819 512.571 441.975 514.517C443.13 516.462 443.708 518.658 443.708 521.085C443.708 523.512 443.13 525.688 441.975 527.653C440.819 529.598 439.24 531.139 437.236 532.237C435.233 533.335 432.98 533.894 430.495 533.894C428.01 533.894 425.737 533.335 423.715 532.218ZM435.888 530.176C437.487 529.271 438.758 528.038 439.663 526.44C440.569 524.841 441.031 523.069 441.031 521.104C441.031 519.14 440.569 517.367 439.663 515.769C438.758 514.17 437.487 512.937 435.888 512.032C434.289 511.127 432.479 510.684 430.495 510.684C428.511 510.684 426.701 511.127 425.083 512.032C423.465 512.937 422.193 514.17 421.269 515.769C420.344 517.367 419.882 519.14 419.882 521.104C419.882 523.069 420.344 524.841 421.269 526.44C422.193 528.038 423.465 529.29 425.083 530.176C426.701 531.082 428.511 531.525 430.495 531.525C432.479 531.525 434.289 531.082 435.888 530.176Z" fill="white"/>
<path opacity="0.2" d="M483.882 531.371V539.326H481.397V533.682H459.42L459.381 539.326H456.896L456.935 531.371H458.187C459.843 531.274 460.999 529.964 461.635 527.441C462.29 524.918 462.675 521.316 462.829 516.674L463.118 508.507H480.087V531.371H483.862H483.882ZM464.331 526.382C463.869 528.867 463.079 530.523 461.981 531.371H477.487V510.799H465.449L465.237 516.905C465.121 520.738 464.832 523.897 464.351 526.382H464.331Z" fill="white"/>
<path opacity="0.2" d="M522.06 522.125H516.84V533.663H514.259V522.125H509L501.296 533.663H498.195L506.824 520.681L498.83 508.488H501.7L508.923 519.775H514.201V508.488H516.782V519.775H522.002L529.263 508.488H532.133L524.159 520.681L532.788 533.663H529.687L521.983 522.125H522.06Z" fill="white"/>
<path opacity="0.2" d="M563.91 509.933C565.817 511.03 567.32 512.571 568.398 514.517C569.496 516.462 570.036 518.658 570.036 521.085C570.036 523.512 569.496 525.688 568.398 527.653C567.3 529.598 565.817 531.139 563.91 532.237C562.004 533.335 559.885 533.894 557.535 533.894C555.57 533.894 553.779 533.586 552.142 532.95C550.505 532.334 549.137 531.409 548.039 530.176L549.696 528.481C551.679 530.484 554.26 531.505 557.419 531.505C559.191 531.505 560.809 531.101 562.273 530.273C563.737 529.444 564.912 528.308 565.817 526.863C566.723 525.419 567.223 523.781 567.339 521.952H554.357V519.756H567.3C567.108 518.003 566.568 516.443 565.663 515.056C564.758 513.669 563.602 512.591 562.158 511.82C560.713 511.05 559.134 510.645 557.419 510.645C554.26 510.645 551.679 511.647 549.696 513.669L548.039 511.974C549.137 510.761 550.505 509.836 552.142 509.201C553.779 508.584 555.57 508.257 557.535 508.257C559.885 508.257 562.023 508.815 563.91 509.913V509.933Z" fill="white"/>
<path opacity="0.2" d="M19.1496 597.879V600.171H1.35205V574.997H18.6102V577.289H4.01012V586.245H17.0308V588.518H4.01012V597.86H19.1496V597.879ZM5.72438 571.703C5.4162 571.414 5.28137 571.048 5.28137 570.586C5.28137 570.124 5.43546 569.796 5.72438 569.488C6.03256 569.18 6.39853 569.045 6.82228 569.045C7.22677 569.045 7.59273 569.199 7.90091 569.488C8.2091 569.796 8.36319 570.162 8.36319 570.586C8.36319 571.01 8.2091 571.376 7.92018 571.684C7.61199 571.992 7.24603 572.127 6.82228 572.127C6.39853 572.127 6.03256 571.992 5.72438 571.703ZM12.1192 571.703C11.811 571.395 11.6761 571.029 11.6761 570.605C11.6761 570.181 11.8302 569.815 12.1384 569.507C12.4466 569.199 12.8126 569.064 13.217 569.064C13.6408 569.064 14.0068 569.218 14.3149 569.507C14.6231 569.796 14.758 570.181 14.758 570.605C14.758 571.067 14.6039 571.433 14.3149 571.722C14.0068 572.011 13.6601 572.146 13.217 572.146C12.774 572.146 12.4273 571.992 12.1192 571.703Z" fill="white"/>
<path opacity="0.2" d="M59.444 576.441C61.3701 577.539 62.8725 579.08 63.9512 581.025C65.0491 582.971 65.5884 585.167 65.5884 587.594C65.5884 590.02 65.0491 592.197 63.9512 594.162C62.8533 596.107 61.3509 597.648 59.444 598.746C57.5179 599.844 55.3799 600.402 53.0107 600.402C50.6416 600.402 48.7154 599.902 46.8663 598.9C45.0172 597.898 43.5341 596.492 42.417 594.701C41.2805 592.91 40.6642 590.868 40.5101 588.614H35.3288V600.19H32.7092V575.016H35.3288V586.207H40.5486C40.7412 584.03 41.3961 582.065 42.5518 580.332C43.6882 578.598 45.1713 577.231 47.0012 576.268C48.831 575.305 50.8342 574.804 53.0492 574.804C55.4184 574.804 57.5756 575.363 59.4825 576.46L59.444 576.441ZM58.0764 596.666C59.5788 595.76 60.773 594.528 61.6398 592.948C62.5066 591.369 62.9303 589.577 62.9303 587.594C62.9303 585.61 62.5066 583.818 61.6398 582.239C60.773 580.659 59.5981 579.407 58.0764 578.521C56.5741 577.616 54.8791 577.173 53.0107 577.173C51.1424 577.173 49.4859 577.616 47.9835 578.521C46.4811 579.427 45.2869 580.659 44.4201 582.239C43.5534 583.818 43.1296 585.61 43.1296 587.594C43.1296 589.577 43.5534 591.369 44.4201 592.948C45.2869 594.528 46.4618 595.78 47.9835 596.666C49.4859 597.571 51.1809 598.014 53.0107 598.014C54.8405 598.014 56.5741 597.571 58.0764 596.666Z" fill="white"/>
<path opacity="0.2" d="M95.5207 585.995C97.0809 587.343 97.8706 589.308 97.8706 591.889C97.8706 594.47 97.0424 596.647 95.3667 598.053C93.7102 599.459 91.3025 600.152 88.1629 600.152H78.1663V574.978H80.7858V583.973H88.7022C91.6685 583.973 93.9413 584.647 95.5207 585.995ZM93.402 596.493C94.6155 595.452 95.2126 593.931 95.2126 591.928C95.2126 588.075 92.8434 586.13 88.0859 586.13H80.7858V598.033H88.0859C90.4165 598.033 92.1885 597.513 93.3827 596.493H93.402Z" fill="white"/>
<path d="M148.042 577.308H139.201V600.171H136.582V577.308H127.741V575.016H148.061V577.308H148.042Z" fill="white"/>
<path d="M185.525 589.289C186.43 590.329 186.892 591.696 186.892 593.372C186.892 595.549 186.122 597.224 184.581 598.399C183.04 599.574 180.767 600.152 177.762 600.152H166.61V574.978H177.069C179.746 574.978 181.846 575.536 183.368 576.634C184.889 577.732 185.64 579.331 185.64 581.411C185.64 582.817 185.274 584.011 184.562 584.993C183.849 585.976 182.828 586.688 181.538 587.17C183.29 587.536 184.619 588.229 185.525 589.269V589.289ZM169.23 586.4H176.934C178.88 586.4 180.363 585.995 181.422 585.205C182.462 584.416 182.982 583.26 182.982 581.758C182.982 580.255 182.462 579.099 181.422 578.31C180.382 577.52 178.88 577.116 176.934 577.116H169.23V586.4ZM184.254 593.199C184.254 590.04 182.077 588.46 177.743 588.46H169.21V598.053H177.743C182.077 598.053 184.254 596.435 184.254 593.199Z" fill="white"/>
<path d="M208.869 598.707C206.847 597.59 205.267 596.068 204.131 594.123C202.995 592.178 202.417 590.001 202.417 587.574C202.417 585.147 202.995 582.971 204.131 581.025C205.267 579.08 206.847 577.558 208.869 576.441C210.892 575.324 213.145 574.765 215.649 574.765C218.153 574.765 220.388 575.324 222.391 576.422C224.394 577.52 225.973 579.061 227.129 581.006C228.285 582.951 228.863 585.147 228.863 587.574C228.863 590.001 228.285 592.178 227.129 594.142C225.973 596.088 224.394 597.629 222.391 598.727C220.388 599.824 218.134 600.383 215.649 600.383C213.165 600.383 210.892 599.824 208.869 598.707ZM221.042 596.666C222.641 595.76 223.912 594.528 224.818 592.929C225.723 591.33 226.185 589.558 226.185 587.593C226.185 585.629 225.723 583.857 224.818 582.258C223.912 580.659 222.641 579.427 221.042 578.521C219.444 577.616 217.633 577.173 215.649 577.173C213.665 577.173 211.855 577.616 210.237 578.521C208.619 579.427 207.348 580.659 206.423 582.258C205.499 583.857 205.036 585.629 205.036 587.593C205.036 589.558 205.499 591.33 206.423 592.929C207.348 594.528 208.619 595.78 210.237 596.666C211.855 597.571 213.665 598.014 215.649 598.014C217.633 598.014 219.444 597.571 221.042 596.666Z" fill="white"/>
<path d="M243.945 574.996H246.564V595.857L262.667 574.996H265.075V600.171H262.455V579.35L246.333 600.171H243.926V574.996H243.945ZM250.185 571.934C249.145 571.125 248.606 569.989 248.587 568.525H250.571C250.59 569.488 250.956 570.239 251.649 570.797C252.343 571.356 253.287 571.626 254.462 571.626C255.636 571.626 256.542 571.356 257.254 570.797C257.967 570.239 258.333 569.488 258.352 568.525H260.336C260.317 569.989 259.778 571.125 258.718 571.934C257.659 572.743 256.253 573.147 254.481 573.147C252.709 573.147 251.264 572.743 250.224 571.934H250.185Z" fill="white"/>
<path opacity="0.2" d="M317.47 585.995C319.03 587.343 319.82 589.308 319.82 591.889C319.82 594.47 318.991 596.647 317.316 598.053C315.659 599.459 313.251 600.152 310.112 600.152H300.115V574.978H302.735V583.973H310.651C313.617 583.973 315.89 584.647 317.47 585.995ZM315.351 596.493C316.564 595.452 317.162 593.931 317.162 591.928C317.162 588.075 314.792 586.13 310.035 586.13H302.735V598.033H310.035C312.365 598.033 314.137 597.513 315.332 596.493H315.351ZM324.173 574.978H326.792V600.152H324.173V574.978Z" fill="white"/>
<path opacity="0.2" d="M366.005 574.997V600.171H363.385V588.557H347.629V600.171H344.971V574.997H347.629V586.226H363.385V574.997H366.005Z" fill="white"/>
<path opacity="0.2" d="M402.936 593.449H388.914L385.89 600.171H383.116L394.615 574.997H397.235L408.734 600.171H405.922L402.898 593.449H402.936ZM401.973 591.292L395.925 577.77L389.877 591.292H401.954H401.973Z" fill="white"/>
<path opacity="0.2" d="M429.253 598.727C427.249 597.629 425.67 596.088 424.534 594.142C423.397 592.197 422.819 590.001 422.819 587.574C422.819 585.147 423.397 582.971 424.534 581.006C425.67 579.061 427.249 577.52 429.272 576.422C431.275 575.324 433.529 574.765 436.033 574.765C437.901 574.765 439.634 575.074 441.214 575.709C442.793 576.326 444.142 577.25 445.24 578.444L443.545 580.139C441.58 578.155 439.095 577.154 436.09 577.154C434.106 577.154 432.296 577.616 430.659 578.521C429.021 579.427 427.75 580.679 426.826 582.258C425.901 583.837 425.439 585.61 425.439 587.574C425.439 589.539 425.901 591.311 426.826 592.89C427.75 594.47 429.021 595.722 430.659 596.627C432.296 597.532 434.106 597.995 436.09 597.995C439.114 597.995 441.599 596.993 443.545 594.971L445.24 596.666C444.142 597.86 442.793 598.784 441.195 599.42C439.596 600.056 437.862 600.364 435.994 600.364C433.509 600.364 431.256 599.805 429.253 598.707V598.727Z" fill="white"/>
<path opacity="0.2" d="M484.706 574.997V600.171H482.087V577.308H469.933L469.644 585.725C469.529 589.212 469.24 592.005 468.797 594.123C468.354 596.242 467.679 597.822 466.755 598.862C465.85 599.902 464.636 600.422 463.114 600.422C462.46 600.422 461.805 600.345 461.092 600.171L461.304 597.802C461.708 597.899 462.113 597.937 462.498 597.937C463.557 597.937 464.405 597.513 465.06 596.685C465.715 595.838 466.216 594.547 466.562 592.775C466.89 591.022 467.121 588.672 467.236 585.783L467.602 574.997H484.687H484.706Z" fill="white"/>
<path opacity="0.2" d="M524.506 597.879V605.834H522.021V600.191H500.044L500.005 605.834H497.521L497.559 597.879H498.811C500.467 597.783 501.623 596.473 502.259 593.95C502.914 591.427 503.299 587.825 503.453 583.183L503.742 575.016H520.711V597.879H524.486H524.506ZM504.955 592.891C504.493 595.375 503.703 597.032 502.605 597.879H518.111V577.308H506.073L505.861 583.414C505.745 587.247 505.456 590.406 504.975 592.891H504.955Z" fill="white"/>
<path opacity="0.2" d="M561.126 588.634H555.906V600.171H553.325V588.634H548.066L540.362 600.171H537.261L545.89 587.189L537.896 574.997H540.766L547.989 586.284H553.267V574.997H555.848V586.284H561.068L568.329 574.997H571.199L563.225 587.189L571.854 600.171H568.753L561.048 588.634H561.126Z" fill="white"/>
<path opacity="0.2" d="M17.3583 644.653H3.95236L3.99088 667.516H1.37134V642.342H17.3583V644.634V644.653Z" fill="white"/>
<path opacity="0.2" d="M59.945 642.361V667.535H57.3255V644.672H45.1715L44.8826 653.089C44.767 656.575 44.4781 659.368 44.0351 661.487C43.5921 663.606 42.918 665.185 41.9934 666.225C41.0689 667.266 39.8747 667.786 38.353 667.786C37.6981 667.786 37.0432 667.709 36.3306 667.535L36.5424 665.166C36.9469 665.262 37.3514 665.301 37.7366 665.301C38.796 665.301 39.6435 664.877 40.2984 664.049C40.9533 663.201 41.4541 661.911 41.7815 660.139C42.109 658.367 42.3401 656.036 42.4749 653.147L42.8409 642.361H59.9257H59.945Z" fill="white"/>
<path opacity="0.2" d="M79.7646 642.361L86.9298 652.319L94.0565 642.361H97.1769L88.5863 654.437L97.8703 667.535H94.75L86.9491 656.71L79.1482 667.535H76.0857L85.3311 654.553L76.7406 642.361H79.8031H79.7646Z" fill="white"/>
<path opacity="0.2" d="M130.056 644.653H121.215V667.516H118.596V644.653H109.755V642.361H130.076V644.653H130.056Z" fill="white"/>
<path opacity="0.2" d="M161.472 653.359C163.032 654.707 163.822 656.672 163.822 659.253C163.822 661.834 162.993 664.011 161.318 665.417C159.661 666.823 157.253 667.516 154.114 667.516H144.117V642.342H146.737V651.337H154.653C157.619 651.337 159.892 652.011 161.472 653.359ZM159.353 663.857C160.566 662.816 161.163 661.295 161.163 659.292C161.163 655.439 158.794 653.494 154.037 653.494H146.737V665.397H154.037C156.367 665.397 158.139 664.877 159.334 663.857H159.353Z" fill="white"/>
<path opacity="0.2" d="M202.479 643.786C204.405 644.884 205.908 646.425 206.986 648.37C208.084 650.315 208.624 652.511 208.624 654.938C208.624 657.365 208.084 659.542 206.986 661.506C205.888 663.452 204.386 664.993 202.479 666.091C200.553 667.188 198.415 667.747 196.046 667.747C193.677 667.747 191.751 667.246 189.901 666.245C188.052 665.243 186.569 663.837 185.452 662.046C184.316 660.254 183.699 658.213 183.545 655.959H178.364V667.535H175.744V642.361H178.364V653.551H183.584C183.776 651.375 184.431 649.41 185.587 647.677C186.723 645.943 188.206 644.576 190.036 643.613C191.866 642.649 193.869 642.149 196.084 642.149C198.454 642.149 200.611 642.707 202.518 643.805L202.479 643.786ZM201.112 664.01C202.614 663.105 203.808 661.872 204.675 660.293C205.542 658.713 205.965 656.922 205.965 654.938C205.965 652.954 205.542 651.163 204.675 649.584C203.808 648.004 202.633 646.752 201.112 645.866C199.609 644.961 197.914 644.518 196.046 644.518C194.178 644.518 192.521 644.961 191.019 645.866C189.516 646.771 188.322 648.004 187.455 649.584C186.589 651.163 186.165 652.954 186.165 654.938C186.165 656.922 186.589 658.713 187.455 660.293C188.322 661.872 189.497 663.124 191.019 664.01C192.521 664.916 194.216 665.359 196.046 665.359C197.876 665.359 199.609 664.916 201.112 664.01Z" fill="white"/>
<path opacity="0.2" d="M239.962 660.794H225.94L222.916 667.516H220.142L231.641 642.342H234.261L245.76 667.516H242.948L239.924 660.794H239.962ZM238.999 658.637L232.951 645.115L226.903 658.637H238.98H238.999Z" fill="white"/>
<path d="M289.733 656.653C290.638 657.693 291.101 659.06 291.101 660.736C291.101 662.913 290.33 664.588 288.789 665.763C287.248 666.938 284.975 667.516 281.971 667.516H270.818V642.342H281.277C283.955 642.342 286.054 642.9 287.576 643.998C289.078 645.096 289.849 646.695 289.849 648.775C289.849 650.181 289.483 651.375 288.77 652.357C288.057 653.34 287.036 654.052 285.746 654.534C287.499 654.9 288.828 655.593 289.733 656.634V656.653ZM273.438 653.764H281.142C283.088 653.764 284.571 653.359 285.611 652.569C286.651 651.78 287.171 650.624 287.171 649.122C287.171 647.619 286.651 646.464 285.611 645.674C284.571 644.884 283.069 644.48 281.142 644.48H273.438V653.764ZM288.462 660.563C288.462 657.404 286.285 655.825 281.951 655.825H273.419V665.417H281.951C286.285 665.417 288.462 663.799 288.462 660.563Z" fill="white"/>
<path d="M323.768 653.359C325.328 654.707 326.118 656.672 326.118 659.253C326.118 661.834 325.289 664.011 323.614 665.417C321.957 666.823 319.55 667.516 316.41 667.516H306.413V642.342H309.033V651.337H316.949C319.916 651.337 322.188 652.011 323.768 653.359ZM321.649 663.857C322.863 662.816 323.46 661.295 323.46 659.292C323.46 655.439 321.09 653.494 316.333 653.494H309.033V665.397H316.333C318.664 665.397 320.436 664.877 321.63 663.857H321.649ZM330.471 642.342H333.09V667.516H330.471V642.342Z" fill="white"/>
<path d="M348.576 642.361H366.99V644.633H351.196V652.877H359.44C362.406 652.877 364.679 653.494 366.22 654.707C367.761 655.921 368.531 657.712 368.531 660.023C368.531 662.335 367.703 664.299 366.027 665.59C364.351 666.88 361.963 667.535 358.843 667.535H348.557V642.361H348.576ZM358.823 665.416C361.154 665.416 362.907 664.973 364.082 664.087C365.257 663.201 365.854 661.892 365.854 660.139C365.854 658.386 365.276 657.134 364.101 656.267C362.945 655.42 361.173 654.996 358.804 654.996H351.177V665.416H358.804H358.823Z" fill="white"/>
<path d="M390.586 666.071C388.563 664.954 386.984 663.432 385.848 661.487C384.711 659.542 384.133 657.365 384.133 654.938C384.133 652.511 384.711 650.335 385.848 648.389C386.984 646.444 388.563 644.922 390.586 643.805C392.608 642.688 394.862 642.129 397.366 642.129C399.87 642.129 402.104 642.688 404.107 643.786C406.111 644.884 407.69 646.425 408.846 648.37C410.001 650.315 410.579 652.511 410.579 654.938C410.579 657.365 410.001 659.542 408.846 661.506C407.69 663.452 406.111 664.993 404.107 666.091C402.104 667.188 399.851 667.747 397.366 667.747C394.881 667.747 392.608 667.188 390.586 666.071ZM402.759 664.03C404.358 663.124 405.629 661.892 406.534 660.293C407.44 658.694 407.902 656.922 407.902 654.957C407.902 652.993 407.44 651.221 406.534 649.622C405.629 648.023 404.358 646.791 402.759 645.885C401.16 644.98 399.35 644.537 397.366 644.537C395.382 644.537 393.571 644.98 391.953 645.885C390.335 646.791 389.064 648.023 388.14 649.622C387.215 651.221 386.753 652.993 386.753 654.957C386.753 656.922 387.215 658.694 388.14 660.293C389.064 661.892 390.335 663.144 391.953 664.03C393.571 664.935 395.382 665.378 397.366 665.378C399.35 665.378 401.16 664.935 402.759 664.03Z" fill="white"/>
<path d="M443.265 644.653C445.095 646.194 446 648.293 446 650.99C446 653.687 445.095 655.786 443.265 657.308C441.435 658.829 438.931 659.6 435.715 659.6H428.954V667.555H426.296V642.38H435.715C438.931 642.38 441.455 643.151 443.265 644.672V644.653ZM441.358 655.613C442.668 654.515 443.342 652.974 443.342 650.99C443.342 649.006 442.687 647.388 441.358 646.29C440.049 645.192 438.142 644.653 435.638 644.653H428.954V657.231H435.638C438.122 657.231 440.029 656.691 441.358 655.593V655.613Z" fill="white"/>
<path opacity="0.2" d="M488.953 644.653H475.547L475.585 667.516H472.966V642.342H488.972V644.634L488.953 644.653Z" fill="white"/>
<path opacity="0.2" d="M511.951 655.979H506.192V667.516H503.611V642.342H506.192V653.629H511.951L520.484 642.342H523.354L514.012 654.573L523.894 667.516H520.831L511.951 655.979Z" fill="white"/>
<path opacity="0.2" d="M567.983 642.361V667.535H537.126V642.361H539.745V665.224H551.245V642.361H553.864V665.224H565.344V642.361H567.963H567.983Z" fill="white"/>
<g filter="url(#filter0_d_76_2997)">
<path d="M247.256 107.154H137.832C125.95 107.154 116.317 116.787 116.317 128.669C116.317 140.552 125.95 150.184 137.832 150.184H247.256C259.138 150.184 268.771 140.552 268.771 128.669C268.771 116.787 259.138 107.154 247.256 107.154Z" stroke="#77C8D6" stroke-width="2" stroke-miterlimit="10" shape-rendering="crispEdges"/>
</g>
<g filter="url(#filter1_d_76_2997)">
<path d="M260.332 564.836H133.548C121.151 564.836 111.101 574.488 111.101 586.394C111.101 598.3 121.151 607.952 133.548 607.952H260.332C272.729 607.952 282.779 598.3 282.779 586.394C282.779 574.488 272.729 564.836 260.332 564.836Z" stroke="#77C8D6" stroke-width="2" stroke-miterlimit="10" shape-rendering="crispEdges"/>
</g>
<g filter="url(#filter2_d_76_2997)">
<path d="M438.427 633.179H279.213C266.895 633.179 256.91 642.831 256.91 654.737C256.91 666.643 266.895 676.295 279.213 676.295H438.427C450.744 676.295 460.729 666.643 460.729 654.737C460.729 642.831 450.744 633.179 438.427 633.179Z" stroke="#D64A26" stroke-width="2" stroke-miterlimit="10" shape-rendering="crispEdges"/>
</g>
<g filter="url(#filter3_d_76_2997)">
<path d="M549.1 176.533H210.081C198.199 176.533 188.566 186.166 188.566 198.048C188.566 209.931 198.199 219.563 210.081 219.563H549.1C560.983 219.563 570.615 209.931 570.615 198.048C570.615 186.166 560.983 176.533 549.1 176.533Z" stroke="#D64A26" stroke-width="2" stroke-miterlimit="10" shape-rendering="crispEdges"/>
</g>
<path opacity="0.15" d="M516.221 149.674C517.358 149.646 518.495 149.617 519.632 149.559L446.864 103.545C447.296 104.596 447.757 105.647 448.246 106.684L516.236 149.674H516.221ZM568.383 22.1143C564.469 18.1694 560.066 14.5845 555.174 11.489C550.281 8.39363 545.173 5.94608 539.935 4.11763L568.397 22.1143H568.383ZM579.089 35.8637C578.297 34.5535 577.463 33.2722 576.599 32.0196L527.488 0.964619C525.977 0.719865 524.467 0.518303 522.956 0.37433L579.089 35.8781V35.8637ZM584.283 46.129C583.852 45.0779 583.391 44.0269 582.916 42.9903L514.926 0C513.775 0.0143973 512.638 0.0575892 511.516 0.115178L584.283 46.129ZM587.319 55.0265C587.06 54.0907 586.801 53.1692 586.499 52.2478L505.084 0.763057C504.134 0.892633 503.185 1.051 502.235 1.22377L587.305 55.0265H587.319ZM589.061 63.1034C588.931 62.2539 588.787 61.4045 588.615 60.555L496.724 2.44754C495.889 2.6635 495.069 2.89386 494.249 3.15301L589.046 63.1034H589.061ZM589.881 70.6044C589.838 69.8125 589.78 69.0063 589.708 68.2144L489.4 4.7943C488.651 5.06785 487.903 5.3558 487.184 5.67254L589.866 70.6044H589.881ZM589.953 77.6302C589.981 76.8816 590.01 76.1329 589.996 75.3843L482.838 7.63057C482.176 7.94731 481.5 8.29284 480.838 8.63838L589.938 77.6302H589.953ZM589.42 84.2674C589.507 83.5619 589.593 82.8565 589.651 82.151L476.924 10.8844C476.32 11.2443 475.73 11.6186 475.125 12.0073L589.392 84.2674H589.42ZM588.356 90.5734C588.499 89.8967 588.615 89.2201 588.744 88.5434L471.571 14.4693C471.024 14.8724 470.477 15.2899 469.931 15.7075L588.341 90.5878L588.356 90.5734ZM586.801 96.5771C587.003 95.9292 587.176 95.2957 587.363 94.6479L466.722 18.371C466.218 18.8029 465.729 19.2492 465.24 19.7099L586.787 96.5771H586.801ZM584.816 102.293C585.06 101.688 585.291 101.083 585.506 100.464L462.304 22.575C461.844 23.0357 461.398 23.5108 460.966 23.9859L584.801 102.293H584.816ZM582.413 107.749C582.7 107.174 582.974 106.598 583.233 106.007L458.318 27.0381C457.901 27.5276 457.513 28.0315 457.11 28.5354L582.398 107.764L582.413 107.749ZM579.607 112.961C579.938 112.414 580.254 111.853 580.571 111.291L454.735 31.746C454.376 32.2644 454.002 32.8114 453.656 33.3441L579.592 112.976L579.607 112.961ZM576.427 117.928C576.786 117.41 577.161 116.863 577.506 116.33L451.555 36.7131C451.224 37.2602 450.908 37.8217 450.591 38.3832L576.412 117.943L576.427 117.928ZM572.844 122.636C573.261 122.147 573.65 121.643 574.038 121.139L448.75 41.9249C448.462 42.5008 448.188 43.0767 447.929 43.667L572.829 122.651L572.844 122.636ZM568.858 127.099C569.318 126.639 569.764 126.164 570.196 125.688L446.361 47.3815C446.116 47.9862 445.886 48.5909 445.67 49.21L568.843 127.099H568.858ZM564.455 131.289C564.958 130.857 565.448 130.411 565.937 129.95L444.389 53.0828C444.188 53.7307 444.015 54.3642 443.828 55.0121L564.455 131.289ZM559.591 135.191C560.138 134.788 560.685 134.384 561.231 133.952L442.821 59.0721C442.677 59.7488 442.548 60.4255 442.418 61.0877L559.577 135.176L559.591 135.191ZM554.238 138.776C554.843 138.416 555.433 138.041 556.037 137.653L441.771 65.3925C441.684 66.098 441.598 66.8035 441.54 67.5089L554.253 138.776H554.238ZM548.324 142.015C549 141.698 549.662 141.353 550.324 141.007L441.224 72.0153C441.195 72.764 441.181 73.5126 441.181 74.2613L548.324 142.015ZM541.777 144.851C542.511 144.578 543.259 144.275 543.993 143.973L441.31 79.0412C441.353 79.833 441.411 80.6393 441.483 81.4311L541.777 144.851ZM491.241 145.528L462.779 127.531C466.693 131.476 471.096 135.061 475.989 138.156C480.881 141.252 485.989 143.699 491.227 145.528M534.438 147.198C535.273 146.982 536.093 146.752 536.913 146.493L442.116 86.5422C442.245 87.3916 442.389 88.2411 442.562 89.0905L534.453 147.198H534.438ZM526.078 148.897C527.028 148.767 527.978 148.609 528.927 148.436L443.857 94.6335C444.116 95.5693 444.39 96.5051 444.677 97.4121L526.093 148.897H526.078ZM508.192 149.286L452.059 113.782C452.85 115.092 453.685 116.373 454.548 117.626L503.659 148.681C505.17 148.926 506.681 149.127 508.192 149.271" fill="#E3E3E3"/>
<path d="M70.751 519.486L43.4962 504V534.992L70.751 519.486L43.4962 504V534.992L70.751 519.486Z" fill="#D64A26"/>
<path d="M30.0707 519.486L2.79663 504V534.992L30.0707 519.486L2.79663 504V534.992L30.0707 519.486Z" fill="#D64A26"/>
<path d="M152.13 519.486L124.875 504V534.992L152.13 519.486L124.875 504V534.992L152.13 519.486Z" fill="#D64A26"/>
<path d="M111.45 519.486L84.176 504V534.992L111.45 519.486L84.176 504V534.992L111.45 519.486Z" fill="#D64A26"/>
<path d="M230.774 519.486L203.5 504V534.992L230.774 519.486L203.5 504V534.992L230.774 519.486Z" fill="#D64A26"/>
<path d="M190.094 519.486L162.82 504V534.992L190.094 519.486L162.82 504V534.992L190.094 519.486Z" fill="#D64A26"/>
<path d="M474.025 142.032C474.432 141.64 474.677 141.101 474.693 140.529C474.693 140.496 474.693 140.464 474.693 140.447V135.596C480.38 134.274 485.838 132.069 490.807 129.047L494.457 132.526L494.538 132.461L494.457 132.559C494.669 132.804 494.913 133.016 495.19 133.147C495.467 133.277 495.76 133.359 496.054 133.359C496.347 133.359 496.64 133.277 496.917 133.147C497.178 133 497.422 132.82 497.634 132.575L511.956 118.463L512.037 118.545C512.249 118.349 512.412 118.12 512.526 117.859C512.64 117.597 512.689 117.32 512.689 117.042C512.689 116.764 512.624 116.487 512.51 116.225C512.396 115.964 512.233 115.735 512.021 115.539L508.485 111.897C511.516 107.112 513.732 101.869 515.019 96.3971H520.135C520.738 96.3644 521.325 96.1357 521.764 95.7111C522.188 95.2864 522.432 94.7148 522.432 94.1268L522.351 74.0207C522.351 73.4327 522.107 72.8611 521.667 72.4364C521.227 72.0281 520.64 71.7831 520.037 71.7994H515.003C513.65 66.3115 511.386 61.0523 508.274 56.2503L511.826 52.7387C512.037 52.5427 512.2 52.3141 512.314 52.0527C512.428 51.7914 512.477 51.5137 512.477 51.2361C512.477 50.9584 512.412 50.6807 512.298 50.4194C512.184 50.1581 512.021 49.9294 511.809 49.7334L497.08 35.638C496.885 35.442 496.64 35.2786 496.363 35.1643C496.103 35.05 495.809 35.001 495.516 35.001C495.223 35.001 494.946 35.0663 494.669 35.1643C494.408 35.2786 494.164 35.442 493.968 35.638L490.384 39.1986C485.398 36.2423 479.956 34.1027 474.27 32.845V27.8961C474.253 27.3081 473.993 26.7364 473.569 26.3118C473.129 25.8871 472.542 25.6584 471.94 25.6584L451.215 25.7564C450.595 25.7564 450.025 26.0014 449.585 26.4261C449.162 26.8508 448.917 27.4224 448.917 28.0104V32.8613C443.231 34.1843 437.756 36.3893 432.787 39.4109L429.153 35.932C428.958 35.736 428.714 35.5726 428.437 35.4583C428.16 35.344 427.883 35.295 427.589 35.295C427.296 35.295 427.019 35.3603 426.742 35.4583C426.481 35.5726 426.237 35.736 426.041 35.932L411.426 50.1581C411.215 50.3541 411.052 50.5827 410.938 50.8441C410.824 51.1054 410.775 51.3831 410.775 51.6607C410.775 51.9384 410.84 52.2161 410.954 52.4774C411.068 52.7387 411.231 52.9674 411.443 53.1634L414.897 56.528C411.915 61.2973 409.764 66.5239 408.494 71.9628H403.28C402.677 71.9954 402.09 72.2241 401.65 72.6488C401.211 73.0734 400.982 73.6451 400.982 74.2331L401.064 94.3391C401.064 94.9271 401.308 95.4988 401.748 95.9234C402.188 96.3317 402.775 96.5767 403.378 96.5767H408.51C409.862 102.081 412.143 107.34 415.272 112.142L411.655 115.654C411.443 115.85 411.28 116.078 411.166 116.34C411.052 116.601 411.003 116.879 411.003 117.156C411.003 117.434 411.068 117.712 411.182 117.973C411.296 118.234 411.459 118.463 411.671 118.659L426.4 132.755C426.612 132.951 426.84 133.114 427.117 133.228C427.394 133.326 427.671 133.392 427.964 133.392C428.257 133.392 428.534 133.326 428.811 133.228C429.072 133.114 429.316 132.951 429.512 132.755L433.129 129.259C438.131 132.232 443.606 134.388 449.325 135.645V140.594C449.341 141.182 449.602 141.754 450.025 142.179C450.465 142.587 451.052 142.832 451.655 142.832L472.38 142.734C472.982 142.734 473.569 142.489 474.009 142.064L474.025 142.032ZM462.604 104.988C457.129 105.005 451.866 102.93 447.972 99.2064C444.062 95.4824 441.846 90.4028 441.797 85.0946C441.797 79.7863 443.98 74.6904 447.858 70.9338C451.72 67.1772 456.966 65.0539 462.441 65.0375C467.915 65.0212 473.178 67.0955 477.072 70.8194C480.966 74.5434 483.198 79.6067 483.247 84.9149C483.263 90.2395 481.113 95.3681 477.235 99.1574C473.373 102.947 468.111 105.086 462.604 105.119V105.005V104.988Z" fill="url(#paint0_linear_76_2997)"/>
<defs>
<filter id="filter0_d_76_2997" x="108.617" y="99.4543" width="167.854" height="58.4298" filterUnits="userSpaceOnUse" color-interpolation-filters="sRGB">
<feFlood flood-opacity="0" result="BackgroundImageFix"/>
<feColorMatrix in="SourceAlpha" type="matrix" values="0 0 0 0 0 0 0 0 0 0 0 0 0 0 0 0 0 0 127 0" result="hardAlpha"/>
<feOffset/>
<feGaussianBlur stdDeviation="3.35"/>
<feComposite in2="hardAlpha" operator="out"/>
<feColorMatrix type="matrix" values="0 0 0 0 1 0 0 0 0 1 0 0 0 0 1 0 0 0 1 0"/>
<feBlend mode="normal" in2="BackgroundImageFix" result="effect1_dropShadow_76_2997"/>
<feBlend mode="normal" in="SourceGraphic" in2="effect1_dropShadow_76_2997" result="shape"/>
</filter>
<filter id="filter1_d_76_2997" x="103.401" y="557.136" width="187.078" height="58.5156" filterUnits="userSpaceOnUse" color-interpolation-filters="sRGB">
<feFlood flood-opacity="0" result="BackgroundImageFix"/>
<feColorMatrix in="SourceAlpha" type="matrix" values="0 0 0 0 0 0 0 0 0 0 0 0 0 0 0 0 0 0 127 0" result="hardAlpha"/>
<feOffset/>
<feGaussianBlur stdDeviation="3.35"/>
<feComposite in2="hardAlpha" operator="out"/>
<feColorMatrix type="matrix" values="0 0 0 0 1 0 0 0 0 1 0 0 0 0 1 0 0 0 1 0"/>
<feBlend mode="normal" in2="BackgroundImageFix" result="effect1_dropShadow_76_2997"/>
<feBlend mode="normal" in="SourceGraphic" in2="effect1_dropShadow_76_2997" result="shape"/>
</filter>
<filter id="filter2_d_76_2997" x="249.21" y="625.479" width="219.219" height="58.5156" filterUnits="userSpaceOnUse" color-interpolation-filters="sRGB">
<feFlood flood-opacity="0" result="BackgroundImageFix"/>
<feColorMatrix in="SourceAlpha" type="matrix" values="0 0 0 0 0 0 0 0 0 0 0 0 0 0 0 0 0 0 127 0" result="hardAlpha"/>
<feOffset/>
<feGaussianBlur stdDeviation="3.35"/>
<feComposite in2="hardAlpha" operator="out"/>
<feColorMatrix type="matrix" values="0 0 0 0 1 0 0 0 0 1 0 0 0 0 1 0 0 0 1 0"/>
<feBlend mode="normal" in2="BackgroundImageFix" result="effect1_dropShadow_76_2997"/>
<feBlend mode="normal" in="SourceGraphic" in2="effect1_dropShadow_76_2997" result="shape"/>
</filter>
<filter id="filter3_d_76_2997" x="180.866" y="168.833" width="397.449" height="58.4298" filterUnits="userSpaceOnUse" color-interpolation-filters="sRGB">
<feFlood flood-opacity="0" result="BackgroundImageFix"/>
<feColorMatrix in="SourceAlpha" type="matrix" values="0 0 0 0 0 0 0 0 0 0 0 0 0 0 0 0 0 0 127 0" result="hardAlpha"/>
<feOffset/>
<feGaussianBlur stdDeviation="3.35"/>
<feComposite in2="hardAlpha" operator="out"/>
<feColorMatrix type="matrix" values="0 0 0 0 1 0 0 0 0 1 0 0 0 0 1 0 0 0 1 0"/>
<feBlend mode="normal" in2="BackgroundImageFix" result="effect1_dropShadow_76_2997"/>
<feBlend mode="normal" in="SourceGraphic" in2="effect1_dropShadow_76_2997" result="shape"/>
</filter>
<linearGradient id="paint0_linear_76_2997" x1="461.722" y1="25.9243" x2="462.234" y2="142.982" gradientUnits="userSpaceOnUse">
<stop offset="0.25" stop-color="#D64A26"/>
<stop offset="1" stop-color="#E99D7A"/>
</linearGradient>
</defs>
</svg>
