<svg width="74" height="74" viewBox="0 0 74 74" fill="none" xmlns="http://www.w3.org/2000/svg">
<circle cx="37" cy="37" r="37" fill="#204089"/>
<path d="M35.4757 13.6731C35.2826 13.6218 35.0823 13.5506 34.8782 13.4542C33.7035 12.8999 33.1897 11.9001 33.0032 11.2389C32.9885 11.1869 32.9754 11.1357 32.9636 11.0854C32.3757 10.1801 31.6392 9.06625 31.2814 8.5624L31.2805 8.56112C29.6408 6.25006 27.7324 4.83754 25.665 4.11359C23.5804 3.38366 21.0968 3.2719 18.2044 3.95719M35.4757 13.6731L52.0208 3.5636C59.8229 3.85397 65.4218 10.5524 64.3738 18.4429L64.3738 18.443C63.5249 24.837 60.5926 30.4167 56.6384 35.9795C51.1247 43.7348 44.4264 50.488 37.4917 57.4795C37.2779 57.6951 37.0638 57.9109 36.8496 58.1269L36.8458 58.1308C36.73 58.2479 36.6147 58.3646 36.4998 58.4807C36.0437 58.02 35.5883 57.5608 35.134 57.1026C27.3682 49.2711 19.9118 41.7516 14.1784 32.7378L14.1782 32.7374C11.5028 28.5323 9.57658 24.1842 8.74507 19.449L8.74493 19.4482C7.42666 11.9512 11.491 5.54806 18.2044 3.95719M35.4757 13.6731C35.987 13.8553 36.8902 14.0435 37.9245 13.6432C39.5475 13.0151 39.992 11.6399 40.1133 10.9355M35.4757 13.6731L40.1133 10.9355M18.2044 3.95719L17.3975 0.551474M18.2044 3.95719L17.3975 0.551474M17.3975 0.551474C24.2343 -1.06832 30.1127 0.866563 34.135 6.53585L17.3975 0.551474ZM40.1133 10.9355C40.6891 10.0622 41.4021 9.00153 41.775 8.4781C44.2931 4.94758 47.5894 3.3995 52.0204 3.56358L40.1133 10.9355Z" fill="#204089" stroke="white" stroke-width="7"/>
</svg>
