<svg width="330" height="332" viewBox="0 0 330 332" fill="none" xmlns="http://www.w3.org/2000/svg">
<path opacity="0.11" d="M110.298 322.629L47.3614 282.431C56.0075 291.236 65.7399 299.202 76.565 306.119C87.3901 313.036 98.698 318.503 110.298 322.629ZM137.85 329.749L29.237 260.383C27.3185 257.579 25.4762 254.725 23.7482 251.82L147.887 331.104C144.533 330.767 141.185 330.309 137.85 329.749ZM165.694 332L15.3499 235.977C14.308 233.663 13.2979 231.336 12.345 229.003L173.267 331.777C170.757 331.905 168.242 331.975 165.694 332ZM187.522 330.411L7.49153 215.429C6.83719 213.382 6.25909 211.335 5.70641 209.256L193.843 329.419C191.734 329.8 189.625 330.131 187.528 330.417L187.522 330.411ZM206.091 326.736L2.89849 196.961C2.54274 195.079 2.21875 193.197 1.93922 191.315L211.58 325.21C209.769 325.757 207.934 326.266 206.091 326.736ZM222.361 321.618L0.579736 179.974C0.420917 178.219 0.306567 176.445 0.204923 174.678L227.284 319.711C225.67 320.385 224.025 321.033 222.361 321.625V321.618ZM236.934 315.394L0.00163532 164.067C-0.0110702 162.408 0.0524573 160.742 0.115985 159.083L241.368 313.169C239.901 313.932 238.414 314.689 236.934 315.394ZM250.065 308.249L0.833846 149.064C0.979959 147.506 1.16419 145.942 1.36748 144.372L254.054 305.763C252.727 306.621 251.399 307.447 250.059 308.249H250.065ZM261.976 300.346L2.89214 134.874C3.17801 133.38 3.46388 131.886 3.78152 130.385L265.616 297.612C264.403 298.541 263.196 299.45 261.97 300.346H261.976ZM272.782 291.713L6.0431 121.351C6.43697 119.927 6.8499 118.51 7.29459 117.092L276.086 288.763C274.993 289.767 273.9 290.746 272.782 291.713ZM282.597 282.45L10.1978 108.471C10.6806 107.104 11.2015 105.757 11.7415 104.422L285.583 279.322C284.611 280.377 283.62 281.426 282.597 282.45ZM291.491 272.596L15.28 96.1822C15.8708 94.8853 16.4997 93.6075 17.1287 92.3296L294.172 269.277C293.289 270.39 292.412 271.509 291.491 272.602V272.596ZM299.477 262.189L21.2452 84.4845C21.944 83.2511 22.6555 82.0051 23.3925 80.7971L301.878 258.667C301.103 259.849 300.283 261.032 299.477 262.189ZM306.592 251.197L28.1062 73.3335C28.8812 72.151 29.7007 70.9685 30.5075 69.8114L308.739 247.516C308.04 248.743 307.329 249.995 306.592 251.203V251.197ZM312.862 239.664L35.8184 62.7292C36.7015 61.6166 37.5782 60.4977 38.4993 59.4042L314.711 235.818C314.12 237.115 313.491 238.393 312.862 239.67V239.664ZM318.249 227.572L44.4074 52.678C45.3793 51.6227 46.3704 50.5737 47.3932 49.5502L319.786 223.529C319.304 224.896 318.783 226.243 318.243 227.579L318.249 227.572ZM322.702 214.908L53.9047 43.2372C54.9974 42.2327 56.0901 41.2537 57.2082 40.2873L323.947 210.649C323.554 212.073 323.141 213.49 322.696 214.908H322.702ZM326.215 201.615L64.3677 34.3876C65.5811 33.4594 66.8072 32.563 68.0332 31.6666L327.117 197.139C326.832 198.633 326.527 200.121 326.209 201.621L326.215 201.615ZM328.629 187.622L75.9297 26.2373C77.2574 25.379 78.5852 24.5526 79.9256 23.7515L329.157 182.936C329.011 184.494 328.826 186.058 328.623 187.628L328.629 187.622ZM329.894 172.923L88.6352 18.8436C90.1027 18.0807 91.5702 17.3114 93.0694 16.6184L330.002 167.945C330.002 169.592 329.951 171.27 329.887 172.93L329.894 172.923ZM329.786 157.322L102.7 12.2954C104.333 11.6342 105.978 10.9857 107.624 10.3818L329.404 152.033C329.582 153.8 329.697 155.574 329.779 157.328L329.786 157.322ZM328.058 140.685L118.404 6.78978C120.215 6.24304 122.051 5.73444 123.893 5.26399L327.086 135.039C327.441 136.921 327.765 138.803 328.045 140.685H328.058ZM324.29 122.744L136.147 2.58749C138.257 2.20604 140.347 1.86274 142.462 1.58937L322.493 116.577C323.128 118.611 323.725 120.671 324.278 122.75L324.29 122.744ZM317.665 103.004L156.743 0.235227C159.252 0.108077 161.768 0.0381448 164.296 0L314.641 96.0233C315.702 98.3501 316.712 100.677 317.658 103.01L317.665 103.004ZM306.261 80.1868L182.116 0.909119C185.47 1.24606 188.818 1.7038 192.153 2.26326L300.766 71.6297C302.685 74.4333 304.527 77.2878 306.255 80.1932L306.261 80.1868ZM282.648 49.5692L219.712 9.38363C231.312 13.5096 242.62 18.9771 253.445 25.894C264.27 32.8109 274.002 40.7768 282.648 49.5819V49.5692Z" fill="white"/>
</svg>
