<svg width="545" height="83" viewBox="0 0 545 83" fill="none" xmlns="http://www.w3.org/2000/svg">
<g clip-path="url(#clip0_1_278)">
<path fill-rule="evenodd" clip-rule="evenodd" d="M9.99011 0H332.258L363.11 30.5808H434.757L468.676 64.7268H541.098V65.2328H468.417L434.51 31.0868H362.851L332 0.505954H10.2487" fill="#75B7E6"/>
<path fill-rule="evenodd" clip-rule="evenodd" d="M183.794 45.1594L326.523 45.1829H499.398V45.6889H326.77L184.053 45.6653" fill="#75B7E6"/>
<path fill-rule="evenodd" clip-rule="evenodd" d="M-2.44148e-06 82.3646H370.761L397.276 56.0903H459.626V56.7257H397.535L371.008 83H-2.44148e-06" fill="#75B7E6"/>
<path fill-rule="evenodd" clip-rule="evenodd" d="M97.4327 64.6327L328.556 64.7268H416.657V65.2328H328.309L97.1741 65.2681" fill="#75B7E6"/>
<path fill-rule="evenodd" clip-rule="evenodd" d="M320.4 0H344.117L375.098 30.5808L374.71 30.9691L343.859 0.505954H320.4V0Z" fill="#75B7E6"/>
<path d="M412.955 64.9739C412.955 64.2091 413.213 63.5737 413.589 62.9384C413.965 62.303 414.612 61.9264 415.246 61.5382C415.881 61.2793 416.645 61.1616 417.409 61.2793C418.173 61.397 418.808 61.7852 419.325 62.2912C419.83 62.7972 420.218 63.4325 420.347 64.1974C420.477 64.9622 420.477 65.5976 420.089 66.3506C419.83 66.986 419.325 67.6214 418.69 67.9979C418.055 68.3744 417.421 68.6333 416.645 68.6333C415.623 68.6333 414.729 68.2568 414.095 67.6214C413.331 66.8566 412.943 65.9741 412.943 64.9622H412.931L412.955 64.9739Z" fill="#75B7E6"/>
<path d="M537.525 64.9739C537.525 64.2091 537.784 63.5737 538.16 62.9384C538.536 62.303 539.182 61.9264 539.817 61.5382C540.452 61.2793 541.215 61.1616 541.979 61.2793C542.743 61.397 543.378 61.7852 543.895 62.2912C544.401 62.7972 544.788 63.4325 544.918 64.1974C545.047 64.9622 545.047 65.5976 544.659 66.3506C544.401 66.986 543.895 67.6214 543.26 67.9979C542.626 68.3744 541.991 68.6333 541.215 68.6333C540.71 68.6333 540.193 68.5039 539.817 68.3744C539.311 68.245 538.924 67.8685 538.665 67.6096C538.406 67.3507 538.03 66.8448 537.901 66.4683C537.525 65.8329 537.525 65.4564 537.525 64.9504H537.513L537.525 64.9739Z" fill="#75B7E6"/>
<path d="M495.708 45.43C495.708 44.6652 495.966 44.0298 496.342 43.3944C496.719 42.759 497.365 42.3825 498 41.9942C498.634 41.7354 499.398 41.6177 500.162 41.7354C500.926 41.853 501.561 42.2413 502.078 42.7473C502.583 43.2532 502.971 43.8886 503.1 44.6534C503.23 45.4182 503.23 46.0536 502.842 46.8067C502.583 47.442 502.078 48.0774 501.443 48.454C500.809 48.8305 500.174 49.0893 499.398 49.0893C498.376 49.0893 497.482 48.7128 496.848 48.0774C496.084 47.3126 495.696 46.4301 495.696 45.4182H495.684L495.708 45.43Z" fill="#75B7E6"/>
</g>
<defs>
<clipPath id="clip0_1_278">
<rect width="545" height="83" fill="white" transform="matrix(-1 0 0 1 545 0)"/>
</clipPath>
</defs>
</svg>
