<svg width="407" height="107" viewBox="0 0 407 107" fill="none" xmlns="http://www.w3.org/2000/svg">
<path d="M256.896 32.8559C256.896 33.7202 257.184 34.4405 257.623 35.1607C258.056 35.881 258.783 36.3131 259.51 36.7452C260.238 37.0333 261.102 37.1774 261.974 37.0333C262.845 36.8893 263.565 36.4571 264.149 35.881C264.725 35.3048 265.164 34.5845 265.308 33.7202C265.452 32.8559 265.452 32.1357 265.02 31.2714C264.732 30.5512 264.149 29.8309 263.429 29.3988C262.701 28.9666 261.981 28.6786 261.109 28.6786C259.95 28.6786 258.934 29.1107 258.214 29.8309C257.343 30.6952 256.91 31.7036 256.91 32.8559L256.896 32.8559Z" fill="white"/>
<path d="M398.503 32.8559C398.503 33.7202 398.791 34.4405 399.231 35.1607C399.663 35.881 400.39 36.3131 401.118 36.7452C401.845 37.0333 402.71 37.1774 403.581 37.0333C404.453 36.8893 405.173 36.4571 405.756 35.881C406.332 35.3048 406.772 34.5845 406.916 33.7202C407.06 32.8559 407.06 32.1357 406.628 31.2714C406.34 30.5512 405.756 29.8309 405.036 29.3988C404.309 28.9666 403.588 28.6786 402.717 28.6786C402.141 28.6786 401.557 28.8226 401.125 28.9666C400.549 29.1107 400.11 29.5428 399.821 29.8309C399.533 30.119 399.094 30.6952 398.95 31.1274C398.518 31.8476 398.518 32.2798 398.518 32.8559L398.503 32.8559Z" fill="white"/>
<path d="M350.96 55.0475C350.96 55.9118 351.249 56.632 351.688 57.3522C352.12 58.0725 352.847 58.5046 353.575 58.9368C354.302 59.2249 355.167 59.3689 356.038 59.2249C356.91 59.0808 357.63 58.6487 358.213 58.0725C358.789 57.4963 359.229 56.776 359.373 55.9118C359.517 55.0475 359.517 54.3272 359.085 53.4629C358.797 52.7427 358.213 52.0225 357.493 51.5903C356.766 51.1582 356.045 50.8701 355.174 50.8701C354.014 50.8701 352.999 51.3022 352.278 52.0225C351.407 52.8868 350.975 53.8951 350.975 55.0475L350.96 55.0475Z" fill="white"/>
<path fill-rule="evenodd" clip-rule="evenodd" d="M11.3663 106.639L165.152 106.639L200.228 71.9087L281.679 71.9087L320.234 33.1454L402.564 33.1454L402.564 32.5692L319.946 32.5692L281.391 71.3325L199.932 71.3325L164.857 106.062L11.6544 106.062" fill="white"/>
<path fill-rule="evenodd" clip-rule="evenodd" d="M103.838 0.576096L158.627 55.3359L355.166 55.3359L355.166 54.7597L158.915 54.7597L104.134 -9.82399e-05" fill="white"/>
<path fill-rule="evenodd" clip-rule="evenodd" d="M0.000704512 13.1163L208.921 13.1163L239.07 42.9414L309.941 42.9414L309.941 42.2212L239.358 42.2212L209.209 12.3888L0.000704575 12.3888" fill="white"/>
<path fill-rule="evenodd" clip-rule="evenodd" d="M122.104 72.0527L160.947 33.1454L261.104 33.1454L261.104 32.5692L160.659 32.5692L121.816 71.3325" fill="white"/>
<path fill-rule="evenodd" clip-rule="evenodd" d="M151.669 106.639L178.628 106.639L213.848 71.9087L213.416 71.4766L178.34 106.062L151.669 106.062L151.669 106.639Z" fill="white"/>
</svg>
