<svg width="758" height="117" viewBox="0 0 758 117" fill="none" xmlns="http://www.w3.org/2000/svg">
<g clip-path="url(#clip0_76_3261)">
<path fill-rule="evenodd" clip-rule="evenodd" d="M744.096 117H295.873L252.968 73.8724H153.321L106.135 25.7737H5.42914V25.0571H106.488L153.674 73.1559H253.321L296.248 116.284H743.743" fill="#77C8D6"/>
<path fill-rule="evenodd" clip-rule="evenodd" d="M502.361 53.3386L303.862 53.3162H63.4077V52.5996H303.509L502.008 52.622" fill="#77C8D6"/>
<path fill-rule="evenodd" clip-rule="evenodd" d="M758 0.895694H242.331L205.451 37.9326H118.738V37.0369H205.098L241.977 0H758" fill="#77C8D6"/>
<path fill-rule="evenodd" clip-rule="evenodd" d="M622.489 25.8854L301.015 25.7735H178.482V25.0569H301.368L622.842 24.9897" fill="#77C8D6"/>
<path fill-rule="evenodd" clip-rule="evenodd" d="M312.381 117H279.386L236.305 73.8724L236.835 73.335L279.739 116.283H312.381V117Z" fill="#77C8D6"/>
<path d="M183.646 25.4152C183.646 26.4901 183.293 27.3858 182.763 28.2815C182.233 29.1772 181.351 29.7146 180.446 30.252C179.563 30.6103 178.504 30.7894 177.422 30.6103C176.341 30.4311 175.48 29.8937 174.752 29.1772C174.045 28.4606 173.516 27.5649 173.339 26.4901C173.163 25.4152 173.163 24.5195 173.692 23.4447C174.045 22.549 174.752 21.6533 175.635 21.1159C176.517 20.5785 177.4 20.2202 178.482 20.2202C179.894 20.2202 181.152 20.7576 182.013 21.6533C183.072 22.7282 183.602 23.9821 183.602 25.4152H183.646Z" fill="#77C8D6"/>
<path d="M10.395 25.4152C10.395 26.4901 10.0418 27.3858 9.51216 28.2815C8.98247 29.1772 8.09969 29.7146 7.19482 30.252C6.31201 30.6103 5.25265 30.7894 4.17122 30.6103C3.08978 30.4311 2.22906 29.8937 1.50074 29.1772C0.794498 28.4606 0.264782 27.5649 0.0882206 26.4901C-0.0883408 25.4152 -0.0883322 24.5195 0.441352 23.4447C0.794475 22.549 1.50073 21.6533 2.38354 21.1159C3.26634 20.5785 4.14917 20.2202 5.23061 20.2202C5.93685 20.2202 6.64304 20.3994 7.17273 20.5785C7.87897 20.7576 8.40866 21.295 8.76178 21.6533C9.1149 22.0116 9.64461 22.7282 9.82117 23.2656C10.3509 24.1613 10.3508 24.6987 10.3508 25.4152H10.395Z" fill="#77C8D6"/>
<path d="M68.55 52.958C68.55 54.0328 68.1969 54.9285 67.6673 55.8242C67.1376 56.7199 66.2548 57.2573 65.3499 57.7947C64.4671 58.153 63.4078 58.3321 62.3263 58.153C61.2449 57.9738 60.3841 57.4364 59.6558 56.7199C58.9495 56.0033 58.4199 55.1076 58.2433 54.0328C58.0668 52.958 58.0668 52.0623 58.5964 50.9874C58.9496 50.0917 59.6558 49.196 60.5386 48.6586C61.4214 48.1212 62.3042 47.7629 63.3856 47.7629C64.7981 47.7629 66.0562 48.3004 66.939 49.196C67.9983 50.2709 68.528 51.5249 68.528 52.958H68.55Z" fill="#77C8D6"/>
</g>
<defs>
<clipPath id="clip0_76_3261">
<rect width="758" height="117" fill="white" transform="matrix(-1 0 0 1 758 0)"/>
</clipPath>
</defs>
</svg>
