<svg width="197" height="186" viewBox="0 0 197 186" fill="none" xmlns="http://www.w3.org/2000/svg">
<mask id="mask0_1_221" style="mask-type:alpha" maskUnits="userSpaceOnUse" x="0" y="0" width="197" height="186">
<rect y="0.0926514" width="197" height="185" fill="#D9D9D9"/>
</mask>
<g mask="url(#mask0_1_221)">
<path d="M155.6 251.98C156.441 251.171 156.912 250.076 156.946 248.948C156.946 248.898 156.946 248.83 156.946 248.763L156.895 238.894C168.504 236.216 179.591 231.72 189.72 225.59L197.156 232.663L197.308 232.511L197.156 232.696C197.577 233.219 198.081 233.623 198.637 233.892C199.192 234.162 199.798 234.313 200.386 234.313C200.975 234.313 201.581 234.162 202.136 233.875C202.675 233.589 203.162 233.202 203.583 232.696L203.617 232.663L232.757 204.033L232.908 204.185C233.329 203.78 233.665 203.309 233.901 202.787C234.119 202.265 234.237 201.709 234.237 201.136C234.237 200.564 234.119 200.008 233.884 199.486C233.648 198.964 233.312 198.492 232.891 198.105L225.69 190.712C231.865 180.994 236.357 170.351 238.998 159.236L249.413 159.185C250.658 159.185 251.852 158.697 252.727 157.855C253.602 156.996 254.09 155.851 254.073 154.638L253.888 113.799C253.888 112.603 253.383 111.441 252.508 110.599C251.633 109.757 250.422 109.285 249.194 109.285L238.948 109.336C236.189 98.1364 231.579 87.4592 225.253 77.7082L232.487 70.5676C232.908 70.1634 233.244 69.6919 233.463 69.1698C233.682 68.6477 233.816 68.0751 233.8 67.5025C233.783 66.9299 233.682 66.3573 233.446 65.8353C233.211 65.3132 232.874 64.8248 232.454 64.4375L202.473 35.8077C202.069 35.4035 201.581 35.0835 201.026 34.8646C200.487 34.6456 199.899 34.5277 199.31 34.5277C198.721 34.5277 198.132 34.6456 197.594 34.8646C197.388 34.9481 197.19 35.0489 197 35.164C196.692 35.3505 196.407 35.5746 196.147 35.8245L188.845 43.0493C178.717 37.0539 167.646 32.6921 156.071 30.1322L156.02 20.0781C156.02 18.8824 155.516 17.7204 154.641 16.8783C153.766 16.0362 152.571 15.5647 151.326 15.5647L109.165 15.7499C107.92 15.7499 106.725 16.2383 105.85 17.0972C104.975 17.9561 104.487 19.1013 104.487 20.3139L104.538 30.1827C92.9122 32.8605 81.8081 37.357 71.663 43.4872L64.2602 36.4139C63.8565 36.0097 63.3517 35.6898 62.8133 35.4708C62.2581 35.2519 61.6861 35.134 61.0973 35.134C60.5084 35.134 59.9195 35.2519 59.3812 35.4708C58.8428 35.6898 58.3549 36.0266 57.9343 36.4308L28.256 65.3469C27.8354 65.7511 27.4989 66.2226 27.2634 66.7447C27.0447 67.2668 26.9101 67.8393 26.9269 68.4119C26.9269 68.9845 27.0447 69.5571 27.2802 70.0792C27.5158 70.6013 27.8523 71.0897 28.2729 71.477L35.3055 78.3145C29.2487 88.0149 24.8575 98.608 22.2834 109.656L11.6672 109.706C10.4222 109.706 9.24448 110.195 8.36961 111.054C7.49474 111.912 7.00684 113.058 7.00684 114.27L7.1919 155.11C7.1919 156.305 7.69664 157.467 8.5715 158.31C9.44637 159.152 10.6409 159.623 11.8859 159.623L22.317 159.573C25.0762 170.789 29.7198 181.483 36.0794 191.234L28.7271 198.374C28.3065 198.779 27.97 199.25 27.7345 199.772C27.5158 200.294 27.398 200.867 27.398 201.423C27.398 201.995 27.5158 202.551 27.7513 203.073C27.9869 203.595 28.3233 204.067 28.744 204.454L58.7082 233.084C59.1288 233.488 59.6167 233.825 60.1551 234.044C60.7103 234.263 61.2823 234.381 61.8712 234.381C62.46 234.381 63.0489 234.263 63.5873 234.044C64.1256 233.825 64.6136 233.488 65.0342 233.084L72.4032 225.977C82.5988 232.006 93.7198 236.385 105.362 238.961L105.413 249.015C105.413 250.211 105.917 251.373 106.792 252.215C107.667 253.057 108.879 253.529 110.107 253.529L152.269 253.344C153.514 253.344 154.691 252.855 155.566 251.996L155.6 251.98Z" stroke="#77C8D6" stroke-width="2" stroke-miterlimit="10"/>
</g>
</svg>
