<svg width="449" height="344" viewBox="0 0 449 344" fill="none" xmlns="http://www.w3.org/2000/svg">
<mask id="mask0_1_566" style="mask-type:alpha" maskUnits="userSpaceOnUse" x="0" y="0" width="421" height="344">
<rect width="421" height="344" rx="66" fill="white"/>
</mask>
<g mask="url(#mask0_1_566)">
<path d="M211.462 460.109C213.038 458.601 213.921 456.558 213.984 454.453C213.984 454.359 213.984 454.233 213.984 454.107L213.889 435.694C235.644 430.698 256.422 422.308 275.402 410.87L289.338 424.068L289.621 423.785L289.338 424.13C290.126 425.104 291.072 425.859 292.112 426.361C293.153 426.864 294.288 427.147 295.391 427.147C296.495 427.147 297.63 426.864 298.67 426.33C299.679 425.796 300.593 425.073 301.381 424.13L301.445 424.068L356.052 370.649L356.336 370.932C357.124 370.178 357.755 369.298 358.196 368.324C358.606 367.35 358.827 366.313 358.827 365.245C358.827 364.176 358.606 363.139 358.165 362.165C357.723 361.191 357.093 360.311 356.305 359.589L342.81 345.794C354.381 327.663 362.799 307.804 367.749 287.065L387.266 286.971C389.599 286.971 391.837 286.06 393.477 284.489C395.116 282.886 396.031 280.749 395.999 278.487L395.652 202.287C395.652 200.056 394.707 197.888 393.067 196.317C391.428 194.746 389.157 193.866 386.856 193.866L367.655 193.96C362.484 173.065 353.845 153.143 341.991 134.949L355.548 121.626C356.336 120.872 356.967 119.992 357.377 119.018C357.786 118.044 358.039 116.975 358.007 115.907C357.976 114.839 357.786 113.77 357.345 112.796C356.904 111.822 356.273 110.911 355.485 110.188L299.301 56.7698C298.544 56.0157 297.63 55.4187 296.589 55.0102C295.58 54.6017 294.477 54.3817 293.373 54.3817C292.27 54.3817 291.166 54.6017 290.157 55.0102C289.772 55.1661 289.401 55.3541 289.045 55.5689C288.469 55.9168 287.933 56.335 287.446 56.8013L273.762 70.2815C254.782 59.0951 234.036 50.9567 212.344 46.1805L212.25 27.4212C212.25 25.1902 211.304 23.0221 209.664 21.451C208.025 19.8798 205.786 19 203.453 19L124.442 19.3456C122.109 19.3456 119.871 20.2569 118.231 21.8594C116.592 23.462 115.677 25.5987 115.677 27.8611L115.772 46.2747C93.9856 51.2709 73.1767 59.6607 54.1649 71.0985L40.2922 57.9011C39.5355 57.1469 38.5897 56.5499 37.5807 56.1414C36.5403 55.7329 35.4683 55.5129 34.3648 55.5129C33.2613 55.5129 32.1578 55.7329 31.1489 56.1414C30.14 56.5499 29.2256 57.1783 28.4374 57.9325L-27.1792 111.885C-27.9675 112.639 -28.598 113.519 -29.0394 114.493C-29.4493 115.467 -29.7015 116.535 -29.67 117.604C-29.67 118.672 -29.4493 119.741 -29.0079 120.715C-28.5665 121.689 -27.9359 122.6 -27.1477 123.323L-13.9687 136.08C-25.319 154.18 -33.548 173.944 -38.3719 194.558L-58.2665 194.652C-60.5997 194.652 -62.8067 195.563 -64.4462 197.166C-66.0857 198.768 -67 200.905 -67 203.167L-66.6532 279.367C-66.6532 281.598 -65.7073 283.766 -64.0678 285.337C-62.4283 286.908 -60.1898 287.788 -57.8567 287.788L-38.3089 287.694C-33.1382 308.621 -24.4362 328.575 -12.5184 346.768L-26.2964 360.091C-27.0846 360.845 -27.7152 361.725 -28.1566 362.699C-28.5665 363.673 -28.7872 364.742 -28.7872 365.779C-28.7872 366.847 -28.5665 367.884 -28.1251 368.858C-27.6837 369.832 -27.0531 370.712 -26.2649 371.435L29.8877 424.853C30.676 425.607 31.5903 426.236 32.5992 426.644C33.6397 427.053 34.7116 427.273 35.8151 427.273C36.9187 427.273 38.0222 427.053 39.0311 426.644C40.04 426.236 40.9543 425.607 41.7425 424.853L55.5521 411.593C74.6585 422.842 95.499 431.012 117.317 435.819L117.411 454.579C117.411 456.81 118.357 458.978 119.997 460.549C121.636 462.12 123.906 463 126.208 463L205.219 462.654C207.552 462.654 209.759 461.743 211.399 460.141L211.462 460.109Z" stroke="#D64A26" stroke-width="2" stroke-miterlimit="10"/>
</g>
<path d="M366.954 100.486L339.7 85V115.992L366.954 100.486L339.7 85V115.992L366.954 100.486Z" fill="white"/>
<path d="M326.274 100.486L299 85V115.992L326.274 100.486L299 85V115.992L326.274 100.486Z" fill="white"/>
<path d="M448.334 100.486L421.079 85V115.992L448.334 100.486L421.079 85V115.992L448.334 100.486Z" fill="white"/>
<path d="M407.653 100.486L380.379 85V115.992L407.653 100.486L380.379 85V115.992L407.653 100.486Z" fill="white"/>
</svg>
