<svg width="91" height="66" viewBox="0 0 91 66" fill="none" xmlns="http://www.w3.org/2000/svg">
<g clip-path="url(#clip0_91_3271)">
<path d="M3.54452 30.3769H0V0H1.77226C16.2939 0 24.7031 5.53455 27.7774 8.04043C30.7252 5.48047 38.8088 0 53.8549 0H55.6272V15.4859H52.0827V3.55149C35.9153 4.0743 29.2242 11.5198 29.1518 11.5919L27.8678 13.0522L26.5296 11.646C26.5296 11.646 19.097 4.09232 3.54452 3.55149V30.3589V30.3769Z" fill="#77C8D6"/>
<path d="M27.8136 65.9999L26.5658 64.774C24.2872 62.5205 21.5203 61.4749 17.8492 61.4749H11.7186C8.11985 61.4749 5.11786 60.4293 3.05626 58.4643C1.04891 56.5533 -0.0180664 53.8852 -0.0180664 50.7123V28.502H3.54453V50.7123C3.54453 55.3094 6.52844 57.9414 11.7548 57.9414H17.8854C21.8458 57.9414 25.1191 59.0051 27.8317 61.1684C30.5624 59.0051 33.8357 57.9414 37.778 57.9414H43.9086C49.1169 57.9414 52.0827 55.3094 52.0827 50.7123V47.2329H55.6272V50.7123C55.6272 53.8671 54.5602 56.5533 52.571 58.4643C50.5094 60.4293 47.5074 61.4749 43.9086 61.4749H37.778C34.125 61.4749 31.3581 62.5205 29.0614 64.774L27.8136 65.9999Z" fill="#77C8D6"/>
<path d="M17.1439 29.2952L14.7749 25.5995L14.1781 29.2231H12.6952L13.943 22.2283H14.3228L17.1439 26.7713L19.9831 22.2283H20.3448L21.6107 29.2231H20.1097L19.4587 25.5995L17.1258 29.2952H17.1439Z" fill="white"/>
<path d="M22.4607 25.7798C22.4788 23.6164 23.9798 22.1201 26.1861 22.1201C28.3923 22.1201 29.8933 23.5984 29.9114 25.7798C29.8933 27.9431 28.4285 29.4394 26.1861 29.4394C23.9436 29.4394 22.4788 27.9251 22.4607 25.7798ZM28.3381 25.7798C28.3381 24.3736 27.4158 23.5083 26.1861 23.5083C24.9563 23.5083 24.034 24.3916 24.034 25.7798C24.034 27.1679 24.9382 28.0513 26.1861 28.0513C27.4339 28.0513 28.3381 27.1859 28.3381 25.7798Z" fill="white"/>
<path d="M36.8376 28.8986C36.1143 29.2772 35.3547 29.4394 34.5229 29.4394C32.3347 29.4394 30.8517 27.871 30.8517 25.7978C30.8517 23.5984 32.3889 22.1201 34.7037 22.1201C35.4271 22.1201 36.0781 22.2643 36.7834 22.5708V24.013C36.1324 23.6705 35.4994 23.5623 34.8303 23.5623C33.4197 23.5623 32.4974 24.3736 32.4974 25.7978C32.5336 27.24 33.5463 27.9972 34.7218 27.9972C35.4994 27.9972 36.2589 27.7448 36.8376 27.3662V28.8986Z" fill="white"/>
<path d="M38.0131 22.2463H39.5141V25.1669H39.8577L42.2991 22.2463H44.0533L41.1598 25.6175L44.3969 29.2411H42.4438L39.8758 26.3026H39.5141V29.2411H38.0131V22.2463Z" fill="white"/>
<path d="M44.0895 25.7798C44.1076 23.6164 45.6086 22.1201 47.8148 22.1201C50.0211 22.1201 51.5221 23.5984 51.5402 25.7798C51.5221 27.9431 50.0573 29.4394 47.8148 29.4394C45.5724 29.4394 44.1076 27.9251 44.0895 25.7798ZM49.9669 25.7798C49.9669 24.3736 49.0446 23.5083 47.8148 23.5083C46.5851 23.5083 45.6628 24.3916 45.6628 25.7798C45.6628 27.1679 46.567 28.0513 47.8148 28.0513C49.0627 28.0513 49.9669 27.1859 49.9669 25.7798Z" fill="white"/>
<path d="M52.8242 22.2462C53.6199 22.2102 54.4879 22.1921 55.3198 22.1921C57.2729 22.1921 58.159 22.8772 58.159 23.9228C58.159 24.662 57.7973 25.2208 57.1282 25.5093C57.942 25.7256 58.4303 26.2664 58.4303 27.1498C58.4303 28.5379 57.1644 29.2591 55.2474 29.2591C54.1986 29.2591 53.3848 29.241 52.8422 29.205V22.2282L52.8242 22.2462ZM54.3252 23.4V25.1127H55.3198C56.0612 25.1127 56.5676 24.8062 56.5676 24.2113C56.5676 23.6704 56.0612 23.4 55.2294 23.4C54.8858 23.4 54.5783 23.4 54.3252 23.418V23.4ZM54.3252 26.2484V28.0332C54.6507 28.0512 54.9762 28.0692 55.2836 28.0692C56.3144 28.0692 56.8389 27.7627 56.8389 27.1137C56.8389 26.5188 56.2963 26.2484 55.356 26.2484H54.3252Z" fill="white"/>
<path d="M65.3566 28.8986C64.6332 29.2772 63.8736 29.4394 63.0418 29.4394C60.8536 29.4394 59.3707 27.871 59.3707 25.7978C59.3707 23.5984 60.9078 22.1201 63.2226 22.1201C63.946 22.1201 64.597 22.2643 65.3023 22.5708V24.013C64.6513 23.6705 64.0183 23.5623 63.3492 23.5623C61.9386 23.5623 61.0163 24.3736 61.0163 25.7978C61.0525 27.24 62.0652 27.9972 63.2407 27.9972C64.0183 27.9972 64.7779 27.7448 65.3566 27.3662V28.8986Z" fill="white"/>
<path d="M66.532 22.2463H68.033V25.1669H68.3766L70.818 22.2463H72.5722L69.6787 25.6175L72.9158 29.2411H70.9627L68.3947 26.3026H68.033V29.2411H66.532V22.2463Z" fill="white"/>
<path d="M72.6083 25.7798C72.6264 23.6164 74.1274 22.1201 76.3337 22.1201C78.54 22.1201 80.041 23.5984 80.0591 25.7798C80.041 27.9431 78.5761 29.4394 76.3337 29.4394C74.0912 29.4394 72.6264 27.9251 72.6083 25.7798ZM78.4857 25.7798C78.4857 24.3736 77.5634 23.5083 76.3337 23.5083C75.104 23.5083 74.1817 24.3916 74.1817 25.7798C74.1817 27.1679 75.0859 28.0513 76.3337 28.0513C77.5815 28.0513 78.4857 27.1859 78.4857 25.7798Z" fill="white"/>
<path d="M81.343 22.2463H86.6055V23.5443H82.8259V25.0586H86.1534V26.3567H82.8259V27.9251H86.6598V29.2231H81.343V22.2283V22.2463Z" fill="white"/>
<path d="M12.5867 37.1374C12.6048 34.9741 14.1057 33.4778 16.312 33.4778C18.5183 33.4778 20.0012 34.9561 20.0374 37.1374C20.0193 39.3008 18.5545 40.7971 16.312 40.7971C14.0696 40.7971 12.6048 39.2828 12.5867 37.1374ZM18.4641 37.1374C18.4641 35.7313 17.5418 34.8659 16.312 34.8659C15.0823 34.8659 14.16 35.7493 14.16 37.1374C14.16 38.5256 15.0642 39.409 16.312 39.409C17.5598 39.409 18.4641 38.5436 18.4641 37.1374Z" fill="white"/>
<path d="M22.8223 36.326C23.184 36.2899 23.6181 36.2358 24.0159 36.2358C25.4626 36.2358 26.9275 36.6505 26.9275 38.3992C26.9275 39.8234 25.9328 40.5986 24.3233 40.5986H21.3214V33.6038H26.3849V34.9018H22.8223V36.326ZM22.8223 39.2645H24.2691C25.0648 39.2645 25.3722 38.8499 25.3722 38.3271C25.3722 37.5699 24.685 37.3896 23.9797 37.3896C23.5638 37.3896 23.1298 37.4437 22.8223 37.4978V39.2645Z" fill="white"/>
<path d="M29.604 40.5986H28.103V33.6038H30.8699C32.9315 33.6038 33.7091 34.7395 33.7091 36.0916C33.7091 37.9304 32.2804 38.5975 30.8337 38.5975C30.472 38.5975 29.9476 38.5795 29.604 38.4893V40.5986ZM29.604 37.2634C29.8752 37.3175 30.3454 37.3355 30.6167 37.3355C31.4847 37.3355 32.1358 36.993 32.1358 36.0555C32.1358 35.4246 31.8645 34.9198 30.7794 34.9198H29.604V37.2814V37.2634Z" fill="white"/>
<path d="M33.2389 40.5986L36.7111 33.6038H37.127L40.6896 40.5986H39.062L38.4833 39.3727H35.3909L34.8303 40.5986H33.2751H33.2389ZM36.91 36.0375L35.9154 38.2009H37.9227L36.91 36.0375Z" fill="white"/>
<path d="M46.35 35.3347C46.35 36.218 45.7351 36.7228 44.9936 36.9932C45.8798 37.2096 46.4946 37.7864 46.4946 38.6518C46.4946 39.8777 45.3372 40.7971 43.5107 40.7971C42.4257 40.7971 41.6842 40.5808 40.9789 40.1841V38.814C41.7927 39.2647 42.498 39.4811 43.4746 39.4811C44.2341 39.4811 44.849 39.1746 44.849 38.5797C44.849 37.9847 44.3969 37.7324 43.4746 37.7324H42.0821V36.4884H43.3118C44.2703 36.4884 44.7224 36.182 44.7224 35.6231C44.7224 34.9921 44.1618 34.7938 43.3841 34.7938C42.5342 34.7938 41.5215 35.0462 41.1598 35.2625V33.9645C41.7566 33.6581 42.6608 33.4778 43.6012 33.4778C45.2287 33.4778 46.35 34.271 46.35 35.3347Z" fill="white"/>
<path d="M47.1819 37.1374C47.2 34.9741 48.701 33.4778 50.9072 33.4778C53.1135 33.4778 54.5964 34.9561 54.6326 37.1374C54.6145 39.3008 53.1497 40.7971 50.9072 40.7971C48.6648 40.7971 47.2 39.2828 47.1819 37.1374ZM53.0593 37.1374C53.0593 35.7313 52.137 34.8659 50.9072 34.8659C49.6775 34.8659 48.7552 35.7493 48.7552 37.1374C48.7552 38.5256 49.6594 39.409 50.9072 39.409C52.1551 39.409 53.0593 38.5436 53.0593 37.1374Z" fill="white"/>
<path d="M55.9346 33.6039C56.7303 33.5678 57.5803 33.5498 58.4303 33.5498C60.3834 33.5498 61.2695 34.2349 61.2695 35.2805C61.2695 36.0196 60.9078 36.5785 60.2387 36.8669C61.0525 37.0833 61.5407 37.6241 61.5407 38.5075C61.5407 39.8956 60.2749 40.6167 58.3579 40.6167C57.309 40.6167 56.4952 40.5987 55.9527 40.5626V33.5859L55.9346 33.6039ZM57.4356 34.7577V36.4703H58.4303C59.1717 36.4703 59.6781 36.1638 59.6781 35.5689C59.6781 35.0281 59.1717 34.7577 58.3398 34.7577C57.9962 34.7577 57.6888 34.7577 57.4356 34.7757V34.7577ZM57.4356 37.6061V39.3908C57.7611 39.4089 58.0867 39.4269 58.3941 39.4269C59.4249 39.4269 59.9493 39.1204 59.9493 38.4714C59.9493 37.8765 59.4068 37.6061 58.4664 37.6061H57.4356Z" fill="white"/>
<path d="M61.8482 40.5986L65.3204 33.6038H65.7363L69.2989 40.5986H67.6713L67.0926 39.3727H64.0002L63.4396 40.5986H61.8844H61.8482ZM65.5193 36.0375L64.5247 38.2009H66.532L65.5193 36.0375Z" fill="white"/>
<path d="M74.6518 33.6038H76.1528V40.5986H74.6518V37.7682H71.5233V40.5986H70.0223V33.6038H71.5233V36.4161H74.6518V33.6038Z" fill="white"/>
<path d="M84.0014 40.5986H82.5728V36.4161L78.323 40.5986H77.8166V33.6038H79.2452V37.7682L83.5131 33.6038H83.9833V40.5986H84.0014Z" fill="white"/>
<path d="M85.7014 33.604H90.9639V34.902H87.1843V36.4163H90.5118V37.7143H87.1843V39.2827H91.0181V40.5807H85.7014V33.5859V33.604Z" fill="white"/>
</g>
<defs>
<clipPath id="clip0_91_3271">
<rect width="91" height="66" fill="white"/>
</clipPath>
</defs>
</svg>
