<svg width="1412" height="1103" viewBox="0 0 1412 1103" fill="none" xmlns="http://www.w3.org/2000/svg">
<g opacity="0.6">
<g style="mix-blend-mode:saturation" clip-path="url(#clip0_1_712)">
<path style="mix-blend-mode:hard-light" opacity="0.35" d="M408.227 1103C304.73 1103 206.581 1064.5 130.378 993.671C50.4479 919.372 4.24294 818.411 0.27957 709.362C-3.69117 600.322 35.0438 496.26 109.361 416.348C183.678 336.436 284.67 290.249 393.736 286.28C502.825 282.31 606.889 321.036 686.812 395.342C851.808 548.714 861.245 807.694 707.837 972.659C633.521 1052.57 532.528 1098.77 423.462 1102.74C418.379 1102.93 413.295 1103.01 408.234 1103.01L408.227 1103ZM408.875 387.999C405.074 387.999 401.265 388.073 397.442 388.206C315.611 391.189 239.835 425.842 184.075 485.808C128.316 545.761 99.2534 623.838 102.23 705.65C105.206 787.462 139.874 863.22 199.848 918.96C259.822 974.706 337.859 1003.76 419.741 1000.79C501.573 997.811 577.348 963.158 633.108 903.191C748.208 779.42 741.128 585.113 617.328 470.04C560.161 416.9 486.515 387.999 408.868 387.999H408.875Z" fill="url(#paint0_linear_1_712)"/>
</g>
<g clip-path="url(#clip1_1_712)">
<g style="mix-blend-mode:overlay" opacity="0.7">
<g opacity="0.8">
<g opacity="0.8">
<path d="M946.079 870.95C706.149 870.95 510.949 675.75 510.949 436.15C510.949 196.55 706.149 1.36 946.079 1.36C1186.01 1.36 1381.21 196.22 1381.21 436.16C1381.21 676.1 1186.01 870.96 946.079 870.96V870.95ZM544.499 605.6C572.289 671.34 615.669 729.29 671.239 774.37C726.819 819.44 792.559 850.28 862.709 863.84C932.859 877.4 1005.38 873.67 1073.84 853C1142.3 831.99 1204.31 794.71 1254.81 744.22C1336.14 662.55 1382.23 551.73 1382.23 435.83C1382.23 319.93 1336.14 209.45 1254.47 127.44C1172.8 46.09 1061.64 0 946.079 0C830.519 0 719.359 46.09 637.689 127.76C576.349 189.1 534.669 267.38 518.059 352.45C501.449 437.51 510.599 525.62 544.489 605.6H544.499Z" fill="white"/>
<path d="M946.08 809.269C740.37 809.269 572.96 641.859 572.96 436.149C572.96 230.439 740.38 62.6895 946.08 62.6895C1151.78 62.6895 1319.2 230.099 1319.2 436.149C1319.2 642.199 1151.79 809.269 946.08 809.269ZM681.41 700.489C716.32 735.399 757.32 762.849 802.73 781.479C848.14 800.459 896.94 809.949 946.08 809.949C995.22 809.949 1044.02 800.119 1089.43 781.479C1134.84 762.839 1176.19 735.389 1210.75 700.489C1263.28 648.299 1298.86 581.539 1313.09 509.019C1327.66 436.499 1320.21 361.259 1291.74 292.809C1263.27 224.349 1215.49 166.069 1154.15 124.719C1092.47 83.7095 1020.29 61.6895 946.07 61.6895C871.85 61.6895 799.67 83.7195 737.99 124.719C676.31 165.729 628.53 224.349 600.06 292.809C571.59 361.269 564.48 436.499 578.71 509.019C593.28 581.539 629.2 648.299 681.39 700.489H681.41Z" fill="white"/>
<path d="M946.079 776.061C758.339 776.061 605.829 623.561 605.829 435.811C605.829 248.061 758.339 95.5708 946.079 95.5708C1133.82 95.5708 1286.33 248.071 1286.33 435.821C1286.33 623.571 1133.83 776.071 946.079 776.071V776.061ZM704.789 677.441C736.649 709.301 774.259 734.371 815.609 751.321C856.949 768.601 901.349 777.411 946.079 777.411C990.809 777.411 1035.21 768.601 1076.55 751.321C1117.89 734.041 1155.51 708.961 1187.37 677.441C1235.15 629.661 1267.69 569.001 1280.9 502.571C1294.12 436.491 1287.34 367.691 1261.58 305.341C1235.82 242.981 1191.77 189.781 1135.85 152.161C1079.59 114.541 1013.85 94.5508 946.069 94.5508C878.289 94.5508 812.549 114.541 756.289 152.161C700.029 189.781 656.319 242.981 630.559 305.341C604.799 367.701 598.029 436.151 611.239 502.571C624.459 568.651 656.989 629.651 704.769 677.441H704.789Z" fill="white"/>
<path d="M946.08 748.27C773.92 748.27 633.62 608.31 633.62 436.15C633.62 263.99 773.59 124.03 946.08 124.03C1118.57 124.03 1258.54 263.99 1258.54 436.15C1258.54 608.31 1118.24 748.27 946.08 748.27ZM724.45 657.45C753.59 686.59 788.16 709.64 826.12 725.23C864.08 740.82 904.74 748.95 946.09 748.95C987.44 748.95 1028.1 740.82 1066.06 725.23C1104.02 709.64 1138.58 686.26 1167.73 657.45C1211.45 613.73 1241.27 557.82 1253.47 497.16C1265.67 436.5 1259.23 373.47 1235.51 316.19C1211.79 258.92 1171.46 210.12 1119.95 175.55C1068.44 140.98 1007.78 122.68 945.76 122.68C883.74 122.68 823.08 140.98 771.57 175.55C720.06 210.12 679.73 258.92 656.01 316.19C632.29 373.46 626.19 436.5 638.05 497.16C650.93 557.82 680.75 613.74 724.47 657.45H724.45Z" fill="white"/>
<path d="M946.079 721.16C788.839 721.16 660.739 593.06 660.739 435.82C660.739 278.58 788.839 150.47 946.079 150.47C1103.32 150.47 1231.42 278.57 1231.42 435.82C1231.42 593.07 1103.32 721.16 946.079 721.16ZM743.759 638.47C790.529 685.24 852.199 714.38 918.289 720.82C984.369 727.26 1050.46 710.65 1105.36 674.05C1160.6 637.11 1200.93 582.55 1220.24 519.18C1239.56 455.81 1236.17 387.69 1210.75 326.69C1185.33 265.35 1139.58 214.86 1081.29 183.68C1023 152.5 955.559 142.34 890.499 155.21C825.429 168.09 767.139 203.33 725.119 254.5C683.099 305.67 660.049 369.72 660.049 436.14C660.049 473.76 667.169 511.03 681.739 545.6C695.969 580.51 716.979 612.02 743.759 638.46V638.47Z" fill="white"/>
<path d="M946.079 697.769C801.709 697.769 684.119 580.509 684.119 436.149C684.119 291.789 801.709 174.529 946.079 174.529C1090.45 174.529 1208.04 292.119 1208.04 436.149C1208.04 580.179 1090.45 697.769 946.079 697.769ZM760.369 621.859C803.409 664.899 859.999 691.669 920.659 697.429C981.319 703.529 1041.98 688.279 1092.48 654.389C1142.97 620.499 1180.25 570.349 1197.87 512.059C1215.49 454.109 1212.44 391.749 1189.06 335.499C1165.68 279.239 1123.65 232.819 1070.11 204.349C1016.57 175.539 954.549 166.389 894.899 178.259C835.259 190.119 781.709 222.319 743.079 269.419C704.449 316.529 683.439 375.489 683.439 436.149C683.439 470.719 690.219 504.939 703.429 536.799C716.309 568.659 735.619 597.459 760.359 621.859H760.369Z" fill="white"/>
<path d="M946.08 673.369C815.27 673.369 708.52 566.959 708.52 436.149C708.52 305.339 814.93 198.929 946.08 198.929C1077.23 198.929 1183.64 305.339 1183.64 436.149C1183.64 566.959 1076.89 673.369 946.08 673.369ZM777.31 604.579C816.28 643.549 867.79 667.949 922.69 673.369C977.59 678.789 1032.83 664.899 1078.58 634.399C1124.33 603.899 1158.22 558.149 1174.15 505.279C1190.08 452.409 1187.37 395.819 1166.36 344.989C1145.35 294.159 1107.05 252.129 1058.59 226.039C1009.79 199.949 953.87 191.809 899.65 202.319C845.43 212.829 796.97 242.309 761.72 285.009C726.81 327.709 707.5 381.249 707.5 436.149C707.5 467.329 713.6 498.509 725.46 527.309C737.66 556.119 755.28 582.549 777.31 604.579Z" fill="white"/>
<path d="M946.08 653.72C825.77 653.72 728.17 556.12 728.17 435.81C728.17 315.5 825.77 217.9 946.08 217.9C1066.39 217.9 1163.99 315.5 1163.99 435.81C1163.99 556.12 1066.39 653.72 946.08 653.72ZM946.08 655.08C1066.72 655.08 1165 556.8 1165 436.16C1165 315.52 1066.72 217.24 946.08 217.24C825.44 217.24 727.16 315.52 727.16 436.16C727.16 556.8 825.44 655.08 946.08 655.08Z" fill="white"/>
</g>
<path d="M1342.58 436.151V436.491H1355.46V433.781H1342.58V436.151ZM1355.12 444.961V442.251L1342.24 441.911V444.621L1355.12 444.961ZM1342.58 428.021L1355.12 427.681V424.971L1342.24 425.311C1342.58 426.331 1342.58 427.001 1342.58 428.021ZM1354.78 453.781V451.071L1341.9 450.731V453.441L1354.78 453.781ZM1342.24 419.891L1355.12 419.211V416.501L1342.24 417.181V419.891ZM1354.44 462.251V459.541L1341.56 458.861V461.571L1354.44 462.251ZM1341.9 411.421L1354.78 410.741C1354.78 409.721 1354.78 408.711 1354.44 408.031L1341.56 409.051C1341.9 409.391 1341.9 410.411 1341.9 411.421ZM1353.76 471.061C1353.76 470.041 1353.76 469.031 1354.1 468.351L1341.22 467.331C1341.22 468.351 1341.22 469.021 1340.88 470.041L1353.76 471.061ZM1341.22 402.941L1354.1 401.921C1354.1 400.901 1354.1 399.891 1353.76 399.211L1341.22 400.231V402.941ZM1353.08 479.531C1353.08 478.511 1353.42 477.501 1353.42 476.821L1340.88 475.461L1340.54 478.171L1353.08 479.531ZM1340.54 394.811L1353.08 393.451L1352.74 390.741L1340.2 392.101C1340.2 392.781 1340.54 393.791 1340.54 394.811ZM1352.06 488.001L1352.4 485.291L1339.86 483.601C1339.86 484.621 1339.52 485.291 1339.52 486.311L1352.06 488.001ZM1339.52 386.331L1352.06 384.641C1352.06 383.621 1351.72 382.611 1351.72 381.931L1339.18 383.621C1339.18 384.641 1339.52 385.311 1339.52 386.331ZM1351.04 496.811C1351.04 495.791 1351.38 494.781 1351.38 494.101L1338.84 492.411C1338.84 493.431 1338.5 494.101 1338.5 495.121L1351.04 496.811ZM1338.5 378.201L1351.04 376.171C1351.04 375.151 1350.7 374.141 1350.7 373.461L1338.16 375.491C1338.16 376.171 1338.16 377.181 1338.5 378.201ZM1349.68 505.281C1349.68 504.261 1350.02 503.251 1350.02 502.571L1337.48 500.541C1337.48 501.561 1337.14 502.231 1337.14 503.251L1349.68 505.281ZM1337.14 369.721L1349.68 367.691C1349.68 366.671 1349.34 365.661 1349.34 364.981L1336.8 367.011L1337.14 369.721ZM1347.98 513.751C1348.32 512.731 1348.32 511.721 1348.66 511.041L1336.12 508.671C1335.78 509.691 1335.78 510.361 1335.44 511.381L1347.98 513.751ZM1335.78 361.591L1348.32 359.221L1347.64 356.511L1335.1 358.881C1335.44 359.901 1335.44 360.571 1335.78 361.591ZM1346.29 522.221C1346.63 521.201 1346.63 520.191 1346.97 519.511L1334.43 516.801C1334.09 517.821 1334.09 518.491 1333.75 519.511L1346.29 522.221ZM1334.09 353.451L1346.63 350.741C1346.29 349.721 1346.29 348.711 1345.95 348.031L1333.41 350.741L1334.09 353.451ZM1344.26 530.691L1344.94 527.981L1332.4 525.271C1332.06 526.291 1332.06 526.961 1331.72 527.981L1344.26 530.691ZM1332.06 345.321L1344.6 342.271C1344.26 341.251 1344.26 340.241 1343.92 339.561L1331.38 342.611C1331.72 343.291 1332.06 344.301 1332.06 345.321ZM1342.23 539.161C1342.57 538.141 1342.57 537.471 1342.91 536.451L1330.37 533.401C1330.03 534.421 1330.03 535.091 1329.69 536.111L1342.23 539.161ZM1330.03 337.181L1342.23 334.131C1341.89 333.111 1341.89 332.101 1341.55 331.421L1329.35 334.811L1330.03 337.181ZM1340.2 547.291C1340.54 546.271 1340.88 545.601 1340.88 544.581L1328.68 541.191L1328 543.901L1340.2 547.291ZM1328 329.051L1340.2 325.661C1339.86 324.641 1339.52 323.971 1339.52 322.951L1327.32 326.341C1327.66 327.361 1327.66 328.031 1328 329.051ZM1337.49 555.431C1337.83 554.411 1338.17 553.741 1338.17 552.721L1325.97 548.991L1325.29 551.701L1337.49 555.431ZM1325.63 320.921L1337.83 317.191C1337.49 316.171 1337.15 315.501 1337.15 314.481L1324.95 318.211L1325.63 320.921ZM1335.12 563.901L1336.14 561.191L1323.94 557.461C1323.6 558.481 1323.26 559.151 1322.92 560.171L1335.12 563.901ZM1323.26 313.121L1335.46 309.051C1335.12 308.031 1334.78 307.361 1334.44 306.341L1322.24 310.411C1322.58 311.091 1322.92 312.101 1323.26 313.121ZM1332.41 572.031L1333.43 569.321L1321.23 565.251L1320.21 567.961L1332.41 572.031ZM1320.55 304.991L1332.75 300.921C1332.41 299.901 1332.07 299.231 1331.73 298.211L1319.87 302.621L1320.55 304.991ZM1329.36 580.171L1330.38 577.461L1318.52 573.051C1318.18 574.071 1317.84 574.741 1317.5 575.761L1329.36 580.171ZM1317.84 297.201L1329.7 292.791C1329.36 291.771 1329.02 291.101 1328.68 290.081L1316.82 294.491L1317.84 297.201ZM1325.97 588.311C1326.31 587.291 1326.65 586.621 1326.99 585.601L1315.13 580.861C1314.79 581.881 1314.45 582.551 1314.11 583.571L1325.97 588.311ZM1314.79 289.411L1326.65 284.671C1326.31 283.651 1325.97 282.981 1325.63 281.961L1313.77 286.701L1314.79 289.411ZM1322.92 596.101L1323.94 593.391L1312.08 588.311L1311.06 591.021L1322.92 596.101ZM1311.4 281.611L1323.26 276.531C1322.92 275.511 1322.58 274.841 1322.24 273.821L1310.38 278.901L1311.4 281.611ZM1319.19 604.231C1319.53 603.211 1319.87 602.541 1320.21 601.521L1308.69 596.441C1308.35 597.121 1308.01 598.131 1307.67 599.151L1319.19 604.231ZM1308.01 274.151L1319.53 269.071C1319.19 268.051 1318.85 267.381 1318.51 266.361L1306.99 271.781C1307.33 272.121 1307.67 273.141 1308.01 274.151ZM1315.8 612.021C1316.14 611.001 1316.48 610.331 1317.16 609.311L1305.64 603.891C1305.3 604.571 1304.96 605.581 1304.28 606.601L1315.8 612.021ZM1304.62 266.351L1316.14 260.931L1314.78 258.221L1303.26 263.641L1304.62 266.351ZM1311.74 619.811C1312.08 618.791 1312.76 618.121 1313.1 617.101L1301.58 611.341C1301.24 612.021 1300.9 613.031 1300.22 613.711L1311.74 619.811ZM1300.9 258.891L1312.08 253.131C1311.74 252.111 1311.06 251.441 1310.72 250.421L1299.2 256.181L1300.89 258.891H1300.9ZM1308.02 627.601C1308.36 626.921 1309.04 625.911 1309.38 624.891L1298.2 619.131L1296.84 621.501L1308.02 627.601ZM1297.18 251.431L1308.36 245.331C1308.02 244.651 1307.34 243.641 1307 242.621L1295.82 248.721L1297.18 251.431ZM1303.62 635.051C1303.96 634.371 1304.64 633.361 1304.98 632.341L1293.8 626.241L1292.44 628.611L1303.62 635.051ZM1293.11 244.311L1304.29 237.871C1303.95 237.191 1303.27 236.181 1302.93 235.501L1291.75 241.601C1292.43 242.621 1292.77 243.291 1293.11 244.311ZM1299.55 642.511C1299.89 641.831 1300.57 640.821 1300.91 640.141L1289.73 633.701L1288.37 636.071L1299.55 642.511ZM1289.04 236.861L1300.22 230.421L1298.86 228.051L1288.02 234.491L1289.04 236.861ZM1294.8 649.971L1296.16 647.601L1285.32 640.821C1284.98 641.501 1284.3 642.511 1283.96 643.191L1294.8 649.971ZM1284.97 229.751L1295.81 222.971C1295.47 222.291 1294.79 221.281 1294.45 220.601L1283.61 227.381L1284.97 229.751ZM1290.39 657.431L1292.08 655.061L1281.24 648.281C1280.9 648.961 1280.22 649.971 1279.88 650.651L1290.39 657.431ZM1280.56 222.631L1291.4 215.851C1290.72 215.171 1290.38 214.161 1289.71 213.481L1278.87 220.601C1279.55 221.281 1279.89 221.961 1280.56 222.631ZM1285.64 664.541L1287.33 662.171L1276.82 655.051L1275.13 657.421L1285.64 664.541ZM1275.81 215.851L1286.32 208.731C1285.64 208.051 1285.3 207.041 1284.63 206.361L1274.12 213.481C1274.8 214.161 1275.48 214.841 1275.81 215.851ZM1280.55 671.661L1282.24 669.291L1271.73 662.171L1270.04 664.541L1280.55 671.661ZM1271.06 208.741L1281.57 201.281L1279.88 198.911L1269.37 206.371C1270.05 207.391 1270.73 208.061 1271.06 208.741ZM1275.47 678.781L1277.16 676.411L1266.65 668.951L1264.96 671.321L1275.47 678.781ZM1266.32 201.961L1276.83 194.501L1275.14 192.131L1264.97 199.591L1266.33 201.961H1266.32ZM1270.39 685.561C1271.07 684.881 1271.41 684.201 1272.08 683.191L1261.91 675.401L1260.22 677.771L1270.39 685.561ZM1261.24 195.191L1271.41 187.401L1269.72 185.031L1259.55 192.821L1261.24 195.191ZM1264.97 692.341L1266.66 689.971L1256.49 682.181L1254.8 684.211L1264.97 692.341ZM1256.16 188.751L1265.99 180.961L1264.3 178.591L1254.47 186.721L1256.16 188.751ZM1259.55 699.121L1261.24 696.751L1251.41 688.621L1249.72 690.651L1259.55 699.121ZM1250.74 182.311L1260.57 174.181C1259.89 173.501 1259.21 172.821 1258.88 172.151L1249.05 180.281L1250.74 182.311ZM1253.79 705.561L1255.82 703.531L1245.99 695.061L1244.3 697.091L1253.79 705.561ZM1245.32 175.881L1254.81 167.411C1254.13 166.731 1253.45 166.051 1252.78 165.381L1243.29 173.851C1244.31 174.531 1244.65 175.211 1245.32 175.881ZM1248.03 712.001L1250.06 709.971L1240.57 701.501L1238.54 703.531L1248.03 712.001ZM1239.9 169.781L1249.39 161.311L1247.36 159.281L1237.87 167.751L1239.9 169.781ZM1242.27 718.441L1244.3 716.411L1235.15 707.601C1234.47 708.281 1233.79 708.961 1233.12 709.631L1242.27 718.441ZM1234.14 163.681L1243.29 154.871C1242.61 154.191 1241.93 153.511 1241.26 152.841L1232.11 161.651L1234.14 163.681ZM1236.17 724.541L1238.2 722.511L1229.05 713.701L1227.02 715.731L1236.17 724.541ZM1228.38 157.581L1237.53 148.771L1235.5 146.741L1226.35 155.891L1228.38 157.581ZM1230.07 730.641L1232.1 728.611L1223.29 719.461L1221.26 721.491L1230.07 730.641ZM1222.28 151.481L1231.43 142.331L1229.4 140.301L1220.59 149.451L1222.28 151.481ZM1223.97 736.401L1226 734.371L1217.19 725.221L1215.16 727.251L1223.97 736.401ZM1216.18 145.721L1224.99 136.231L1222.96 134.201L1214.49 143.691L1216.18 145.721ZM1217.54 742.171L1219.57 740.141L1211.1 730.651L1209.07 732.681L1217.54 742.171ZM1210.08 140.301L1218.55 130.811L1216.52 128.781L1208.05 138.271L1210.08 140.301ZM1210.76 747.931L1213.13 746.241L1204.66 736.411L1202.63 738.101L1210.76 747.931ZM1203.64 134.541L1211.77 124.711L1209.74 122.681L1201.61 132.511L1203.64 134.541ZM1204.32 753.691L1206.69 752.001L1198.56 742.171L1196.53 743.861L1204.32 753.691ZM1197.2 129.461L1205.33 119.631L1202.96 117.941L1194.83 127.771C1195.85 128.111 1196.86 128.791 1197.2 129.461ZM1197.54 758.781L1199.91 757.091L1192.12 746.921L1190.09 748.611L1197.55 758.781H1197.54ZM1190.76 124.041L1198.55 113.871L1196.18 112.181L1188.39 122.351C1189.41 123.031 1190.08 123.371 1190.76 124.041ZM1190.76 764.201L1193.13 762.511L1185.34 752.341L1182.97 754.031L1190.76 764.201ZM1184.32 118.951L1192.11 108.781L1189.74 107.091L1182.28 117.261L1184.31 118.951H1184.32ZM1183.64 769.281L1186.01 767.591L1178.55 757.081L1176.18 758.771L1183.64 769.281ZM1177.54 113.871L1185 103.361L1182.63 101.671L1175.17 112.181L1177.54 113.871ZM1176.52 774.031L1178.89 772.671L1171.77 762.161L1169.4 763.851L1176.52 774.021V774.031ZM1170.76 109.131L1177.88 98.6208L1175.51 96.9308L1168.39 107.441L1170.76 109.131ZM1169.4 778.781L1171.77 777.091L1164.65 766.581L1162.28 768.271L1169.4 778.781ZM1163.64 104.391L1170.76 93.8808L1168.39 92.1908L1161.61 103.031L1163.64 104.391ZM1162.28 783.521L1164.65 781.831L1157.87 770.991L1155.5 772.351L1162.28 783.531V783.521ZM1156.52 99.9808L1163.3 89.1408C1162.62 88.4608 1161.61 88.1208 1160.93 87.4508L1154.15 98.2908L1156.52 99.9808ZM1154.83 787.931C1155.51 787.591 1156.52 786.911 1157.2 786.571L1150.76 775.731L1148.39 777.091L1154.83 787.931ZM1149.41 95.5808L1156.19 84.7408L1153.82 83.3808L1147.38 94.2208L1149.41 95.5808ZM1147.38 792.341C1148.06 792.001 1149.07 791.321 1149.75 790.981L1143.31 779.801L1140.94 781.161L1147.38 792.341ZM1142.3 91.5208L1148.74 80.3408L1146.37 78.9808L1140.27 90.1608L1142.3 91.5208ZM1139.93 796.411C1140.95 796.071 1141.62 795.391 1142.64 795.051L1136.54 783.871C1135.86 784.211 1134.85 784.891 1134.17 785.231L1139.93 796.411ZM1134.85 87.4508L1140.95 76.2708L1138.24 74.9108L1132.14 86.0908L1134.85 87.4508ZM1132.14 800.471L1134.85 799.111L1129.09 787.931L1126.72 789.291L1132.14 800.471ZM1127.4 83.3808L1133.16 72.2008L1130.45 70.8408L1124.69 82.3608L1127.4 83.3808ZM1124.35 804.541L1127.06 803.181L1121.3 791.661L1118.93 793.021L1124.35 804.541ZM1119.94 79.6608L1125.7 68.1408L1122.99 66.7808L1117.57 78.3008L1119.94 79.6608ZM1116.89 807.931L1119.6 806.571L1114.18 795.051L1111.81 796.071L1116.89 807.931ZM1112.48 75.9308L1117.9 64.4108C1116.88 64.0708 1116.21 63.7308 1115.19 63.0508L1109.77 74.5708C1110.79 75.2508 1111.46 75.5908 1112.48 75.9308ZM1108.75 811.661C1109.77 811.321 1110.44 810.981 1111.46 810.641L1106.38 799.121L1103.67 800.141L1108.75 811.661ZM1104.68 72.5408L1110.1 61.0208L1107.39 60.0008L1102.31 71.5208L1104.68 72.5408ZM1100.95 815.051L1103.66 814.031L1098.58 802.171L1095.87 803.191L1100.95 815.051ZM1096.88 69.1508L1101.96 57.6308L1099.25 56.6108L1094.51 68.4708L1096.88 69.1508ZM1092.81 818.101L1095.52 817.081L1090.78 805.221L1088.07 806.241L1092.81 818.101ZM1089.08 66.1008L1093.82 54.2408L1091.11 53.2208L1086.7 65.0808L1089.07 66.1008H1089.08ZM1084.67 821.151L1087.38 820.131L1082.97 808.271L1080.26 809.291L1084.67 821.151ZM1081.28 63.0508L1085.69 51.1908L1082.98 50.1708L1078.57 62.0308L1081.28 63.0508ZM1076.54 823.861L1079.25 822.841L1075.18 810.641L1072.47 811.661L1076.54 823.861ZM1073.49 60.3408L1077.56 48.1408L1074.85 47.1208L1070.78 59.3208C1071.8 60.0008 1072.47 60.0008 1073.49 60.3408ZM1068.41 826.571L1071.12 825.551L1067.39 813.351L1064.68 814.371L1068.41 826.571ZM1065.36 57.9708L1069.09 45.7708L1066.38 44.7508L1062.65 56.9508L1065.36 57.9708ZM1060.28 828.941L1062.99 828.261L1059.26 816.061L1056.55 816.741L1060.28 828.941ZM1057.57 55.5908L1061.3 43.3908L1058.59 42.7108L1055.2 54.9108L1057.57 55.5908ZM1051.81 831.311L1054.52 830.631L1051.13 818.431L1048.42 819.111L1051.81 831.311ZM1049.44 53.2208L1052.83 41.0208L1050.12 40.3408L1046.73 52.5408L1049.44 53.2208ZM1043.34 833.681L1046.05 833.001L1043 820.801L1040.29 821.481L1043.34 833.681ZM1041.31 51.1808L1044.36 38.6408L1041.65 37.9608L1038.6 50.5008L1041.31 51.1808ZM1034.87 835.371L1037.58 834.691L1034.87 822.151L1032.16 822.831L1034.87 835.371ZM1033.18 49.1508L1035.89 36.6108L1033.18 35.9308L1030.47 48.4708L1033.18 49.1508ZM1026.4 837.071L1029.11 836.391L1026.4 823.851L1023.69 824.531L1026.4 837.071ZM1025.04 47.4608L1027.41 34.9208L1024.7 34.2408L1022.33 46.7808L1025.04 47.4608ZM1017.92 838.771L1020.63 838.091L1018.26 825.551L1015.55 825.891L1017.92 838.771ZM1016.9 45.7708L1019.27 33.2308L1016.56 32.8908L1014.53 45.4308L1016.9 45.7708ZM1009.44 840.131L1012.15 839.791L1010.12 827.251L1007.41 827.591L1009.44 840.131ZM1008.42 44.4208L1010.45 31.8808L1007.74 31.5408L1005.71 44.0808L1008.42 44.4208ZM1000.96 841.491L1003.67 841.151L1001.98 828.611L999.27 828.951L1000.96 841.491ZM1000.28 43.4108L1001.97 30.5308L999.26 30.1908L997.57 42.7308L1000.28 43.4108ZM992.49 842.511L995.2 842.171L993.84 829.631C992.82 829.631 992.15 829.971 991.13 829.971L992.49 842.511ZM991.81 42.3908L993.17 29.8508C992.15 29.8508 991.14 29.5108 990.46 29.5108L989.1 42.0508L991.81 42.3908ZM983.68 843.521C984.7 843.521 985.71 843.181 986.39 843.181L985.03 830.641L982.32 830.981L983.68 843.521ZM983.68 41.3708L985.04 28.8308L982.33 28.4908L981.31 41.0308L983.68 41.3708ZM975.21 844.201L977.92 843.861L976.9 830.981L974.19 831.321L975.21 844.201ZM975.21 40.6908L976.23 27.8108L973.52 27.4708L972.84 40.3508L975.21 40.6908ZM966.74 844.541H969.45L968.77 831.661H966.06L966.74 844.541ZM966.74 40.0208L967.42 27.1408H964.71L964.03 40.0208H966.74ZM957.93 844.881H960.64L960.3 832.001H957.59L957.93 844.881ZM958.61 39.6808L958.95 27.1408H956.24L955.9 40.0208C956.58 39.6808 957.59 39.6808 958.61 39.6808ZM949.46 845.221H952.17L951.83 832.341H949.12L949.46 845.221ZM950.14 39.6808V26.8008H947.43V39.6808H950.14ZM946.07 845.221V832.341H943.36V845.221H946.07ZM938.95 39.6808H941.66V26.8008H938.95V39.6808ZM937.59 845.221L937.93 832.341H935.22L934.88 845.221H937.59ZM930.47 40.0208H933.18L932.84 27.1408H930.13L930.47 40.0208ZM928.78 844.881L929.46 832.001H926.75L926.07 844.881H928.78ZM922.34 40.3608H925.05L924.37 27.4808H921.32L922.34 40.3608ZM920.31 844.541L920.99 831.661L918.28 831.321L917.26 844.201L920.31 844.541ZM913.87 41.0308L916.58 40.6908L915.56 27.8108L912.85 28.1508L913.87 41.0308ZM911.5 843.861L912.52 830.981L909.81 830.641L908.79 843.181L911.5 843.861ZM905.74 41.7108L908.45 41.3708L907.09 28.8308L904.38 29.1708L905.74 41.7108ZM903.03 842.841L904.39 830.301C903.37 830.301 902.7 829.961 901.68 829.961L900.32 842.501L903.03 842.841ZM897.27 42.7208L899.98 42.3808L898.62 29.8408L895.91 30.1808L897.27 42.7208ZM894.56 842.161L896.25 829.621L893.54 829.281L891.85 841.821L894.56 842.161ZM889.14 43.7408L891.85 43.4008L890.16 30.8608L887.45 31.2008L889.14 43.7408ZM885.75 840.811L887.78 828.271L885.07 827.931L883.04 840.471C884.06 840.471 885.07 840.471 885.75 840.811ZM880.67 45.1008L883.38 44.7608L881.35 32.2208L878.64 32.5608L880.67 45.1008ZM877.28 839.461L879.31 826.921L876.6 826.581L874.23 839.121L877.28 839.461ZM872.54 46.4608L875.25 46.1208L872.88 33.5808L870.17 34.2608L872.54 46.4608ZM868.81 837.771L871.18 825.231L868.47 824.551L866.1 837.091L868.81 837.771ZM864.4 48.1608L867.11 47.4808L864.74 34.9408L862.03 35.6208L864.4 48.1608ZM860.33 836.081L863.04 823.541L860.33 822.861L857.62 835.401L860.33 836.081ZM855.92 49.8608L858.63 49.1808L855.92 36.6408L853.21 37.3208L855.92 49.8608ZM851.85 834.391L854.9 821.851L852.19 821.171L849.14 833.711L851.85 834.391ZM847.78 51.8908L850.49 51.2108L847.44 38.6708L844.73 39.3508L847.78 51.8908ZM843.37 832.351L846.42 820.151L843.71 819.471L840.32 831.671L843.37 832.351ZM839.98 53.9208L842.69 53.2408L839.3 41.0408L836.59 41.7208L839.98 53.9208ZM835.24 829.981L838.63 817.781L835.92 817.101L832.53 829.301L835.24 829.981ZM831.85 56.3008L834.56 55.6208L830.83 43.4208L828.12 44.1008L831.85 56.3008ZM826.77 827.611L830.5 815.411L827.79 814.731L824.06 826.931L826.77 827.611ZM823.72 59.0108L826.43 57.9908L822.7 45.7908L819.99 46.8108L823.72 59.0108ZM818.64 824.901L822.71 812.701L820 811.681L815.93 823.881L818.64 824.901ZM815.93 61.7208L818.64 60.7008L814.57 48.5008L811.86 49.5208L815.93 61.7208ZM810.51 822.191L814.58 810.331L811.87 809.311L807.46 821.171L810.51 822.191ZM808.14 64.4308L810.85 63.4108L806.44 51.5508L803.73 52.5708L808.14 64.4308ZM802.38 819.141L806.79 807.281L804.08 806.261L799.67 818.121L802.38 819.141ZM800.35 67.4808L803.06 66.4608L798.32 54.6008L795.61 55.6208L800.35 67.4808ZM794.25 816.091L798.99 804.231L796.28 803.211L791.54 815.071L794.25 816.091ZM792.56 70.5308L795.27 69.5108L790.53 57.6508L787.82 58.6708L792.56 70.5308ZM786.12 812.701L791.2 800.841L788.49 799.821L783.41 811.341L786.12 812.701ZM784.76 73.9208L787.47 72.9008L782.39 61.0408L779.68 62.0608L784.76 73.9208ZM778.32 809.311L783.4 797.791L780.69 796.771L775.27 808.291L778.32 809.311ZM777.3 77.3108L779.67 76.2908L774.25 64.7708L771.54 66.1308L777.3 77.3108ZM770.18 805.581L775.6 794.061L773.23 792.701L767.81 804.221L770.18 805.581ZM769.84 81.0308L772.55 79.6708L766.79 68.1508L764.08 69.5108L769.84 81.0308ZM762.72 801.851L768.48 790.331L766.11 788.971L760.35 800.151L762.72 801.841V801.851ZM762.38 84.7608L764.75 83.4008L758.99 72.2208L756.28 73.5808L762.38 84.7608ZM754.92 797.781L761.02 786.601C760.34 786.261 759.33 785.581 758.65 785.241L752.55 796.421L754.92 797.781ZM754.92 88.4808L757.29 87.1208L751.19 75.9408L748.82 77.3008L754.92 88.4808ZM747.13 793.711L753.23 782.531C752.55 782.191 751.54 781.511 750.86 781.171L744.42 792.351L747.13 793.711ZM747.81 92.8908L750.18 91.5308L743.74 80.3508L741.37 81.7108L747.81 92.8908ZM739.68 789.651L746.12 778.811L743.75 777.451L737.31 788.291L739.68 789.651ZM740.36 96.9608L742.73 95.6008L736.29 84.7608L733.92 86.1208L740.36 96.9608ZM732.23 784.911L739.01 774.071L736.64 772.711L729.86 783.551L732.23 784.911ZM733.59 101.371L735.96 100.011L729.18 89.1708L726.81 90.8608L733.59 101.371ZM725.12 780.501L731.9 769.661L729.53 768.301L722.41 779.141L725.12 780.501ZM726.48 106.111L728.85 104.421L721.73 93.9108L719.36 95.6008L726.48 106.111ZM717.67 775.761L724.79 765.251L722.42 763.561L715.3 774.071L717.67 775.761ZM719.7 110.861C720.38 110.181 721.06 109.841 722.07 109.171L714.95 98.6608C714.27 99.3408 713.26 99.6808 712.58 100.351L719.7 110.861ZM710.55 770.681L718.01 760.171L715.64 758.481L708.18 768.991L710.55 770.681ZM712.58 115.611L714.95 113.921L707.49 103.411C706.81 104.091 705.8 104.431 705.12 105.101L712.58 115.611ZM703.77 765.601L711.23 755.431L708.86 753.741L701.07 763.911C702.09 764.591 702.76 765.271 703.78 765.601H703.77ZM706.14 120.351L708.51 118.661L700.72 108.491L698.35 110.181L706.14 120.351ZM696.65 760.511L704.44 750.341L702.07 748.651L694.28 758.821L696.65 760.511ZM699.36 125.771L701.39 124.081L693.6 113.911L691.23 115.601L699.36 125.771ZM689.87 755.091L698 745.261L695.97 743.571L687.84 753.401L689.87 755.091ZM692.92 130.861L694.95 129.171L686.82 119.341L684.45 121.031L692.92 130.861ZM683.43 749.671L691.56 739.841L689.53 738.151L681.4 747.981C681.74 748.321 682.42 749.001 683.43 749.671ZM686.48 136.281L688.51 134.591L680.38 124.761L678.35 126.791L686.48 136.281ZM676.65 743.911L685.12 734.421C684.44 733.741 683.76 733.061 683.09 732.731L674.62 742.221C675.3 742.901 675.98 743.581 676.65 743.911ZM680.38 142.041L682.41 140.351L673.94 130.861L671.91 132.891L680.38 142.041ZM670.21 738.151L678.68 728.661L676.65 726.631L667.84 736.121L670.21 738.151ZM674.28 147.471L676.31 145.441L667.5 136.291L665.47 138.321L674.28 147.471ZM663.77 732.391L672.58 723.241L670.55 721.211L661.74 730.361L663.77 732.391ZM668.18 153.231L670.21 151.201L661.4 142.051L659.37 144.081L668.18 153.231ZM657.67 726.291L666.82 717.141L664.79 715.111L655.64 724.261C656.32 724.941 657 725.621 657.67 726.291ZM662.08 159.331L664.11 157.301L654.96 148.491L652.93 150.521L662.08 159.331ZM651.57 720.531L660.72 711.721C660.04 711.041 659.36 710.361 658.69 709.691L649.54 718.501C650.22 718.841 650.9 719.521 651.57 720.531ZM656.31 165.431L658.34 163.401L649.19 154.591L647.16 156.621L656.31 165.431ZM645.8 714.091L655.29 705.281L653.26 703.251L643.77 711.721C644.45 712.741 645.13 713.411 645.8 714.091ZM650.88 171.531C651.56 170.851 652.24 170.171 652.91 169.501L643.42 161.031C642.74 161.711 642.06 162.391 641.39 163.061L650.88 171.531ZM640.04 707.651L649.53 699.181C648.85 698.501 648.17 697.821 647.84 697.151L638.35 705.621L640.04 707.651ZM645.12 177.971L646.81 175.941L637.32 167.471L635.29 169.501L645.12 177.971ZM634.28 701.221L644.11 693.091C643.43 692.411 642.75 691.731 642.42 691.061L632.59 699.191L634.28 701.221ZM640.04 184.071C640.72 183.391 641.06 182.711 641.73 182.041L631.9 173.911L630.21 176.281L640.04 184.071ZM628.86 694.441L638.69 686.311L637 684.281L627.17 692.411L628.86 694.441ZM634.62 190.851C635.3 190.171 635.64 189.491 636.31 188.821L626.48 180.691L624.79 183.061L634.62 190.851ZM623.44 687.661L633.61 679.871L631.92 677.841L621.75 685.631C622.09 686.311 622.77 686.991 623.44 687.661ZM629.54 197.291C630.22 196.611 630.56 195.931 631.23 194.921L621.06 187.131L619.37 189.501L629.54 197.291ZM618.02 680.891L628.19 673.101C627.51 672.421 627.17 671.741 626.5 670.731L616.33 678.191L618.02 680.901V680.891ZM624.46 204.071L626.15 201.701L615.98 194.241C615.3 194.921 614.96 195.931 614.29 196.611L624.46 204.071ZM612.94 673.771L623.45 666.311C622.77 665.631 622.43 664.951 621.76 663.941L611.25 671.401L612.94 673.771ZM619.72 210.851L621.41 208.481L610.9 201.021C610.22 201.701 609.88 202.711 609.21 203.391L619.72 210.851ZM608.2 667.001L618.71 659.881L617.02 657.511L606.51 664.631L608.2 667.001ZM614.98 217.971C615.32 217.291 616 216.281 616.67 215.601L606.16 208.481C605.48 209.161 605.14 210.171 604.47 210.851L614.98 217.971ZM603.12 659.541L613.63 652.421L612.27 650.051L601.43 656.831C602.45 658.191 602.79 658.861 603.12 659.541ZM610.24 225.081C610.58 224.401 611.26 223.391 611.6 222.711L600.76 215.931C600.08 216.611 599.74 217.621 599.07 218.301L610.25 225.081H610.24ZM598.72 652.421L609.56 645.641C609.22 644.961 608.54 643.951 608.2 643.271L597.36 650.051C597.7 650.731 598.04 651.741 598.72 652.421ZM606.18 231.861C606.52 231.181 607.2 230.171 607.54 229.491L596.7 222.711C596.36 223.391 595.68 224.401 595.34 225.081L606.18 231.861ZM594.32 644.971L605.16 638.531L603.8 636.161L592.96 642.601L594.32 644.971ZM601.78 239.321C602.12 238.641 602.8 237.631 603.14 236.951L591.96 230.511C591.62 231.191 590.94 232.201 590.6 232.881L601.78 239.321ZM589.92 637.521L601.1 631.081C600.76 630.401 600.08 629.391 599.74 628.711L588.56 634.811C588.9 635.831 589.58 636.841 589.92 637.521ZM597.71 246.441C598.05 245.761 598.73 244.751 599.07 244.071L587.89 237.971C587.55 238.651 586.87 239.661 586.53 240.341L597.71 246.441ZM585.85 630.061L597.03 623.961L595.67 621.591L584.49 627.691L585.85 630.061ZM593.64 253.891C593.98 253.211 594.66 252.201 595 251.521L583.82 245.421L582.46 248.131L593.64 253.891ZM581.78 622.601L593.3 616.841C592.96 616.161 592.62 615.151 591.94 614.471L580.42 620.231L581.78 622.601ZM589.91 261.341L591.27 258.971L579.75 253.211L578.39 255.921L589.91 261.341ZM577.71 614.801L589.23 609.381L587.87 607.011L576.35 612.431L577.71 614.801ZM586.52 269.131C586.86 268.111 587.2 267.441 587.88 266.421L576.36 261.001C576.02 262.021 575.68 262.691 575 263.711L586.52 269.131ZM573.98 607.001L585.5 601.581L584.48 598.871L572.96 604.291C573.3 605.311 573.64 605.981 573.98 607.001ZM582.79 276.581L583.81 273.871L572.29 268.791L571.27 271.501L582.79 276.581ZM570.59 599.201L582.11 594.121C581.77 593.441 581.43 592.431 581.09 591.411L569.23 596.491L570.59 599.201ZM579.74 284.371L580.76 281.661L568.9 276.581C568.56 277.601 568.22 278.271 567.88 279.291L579.74 284.371ZM567.2 591.071L579.06 586.331L578.04 583.621L566.18 588.361L567.2 591.071ZM576.35 292.171C576.69 291.151 577.03 290.481 577.37 289.461L565.51 284.721L564.49 287.431L576.35 292.171ZM564.15 583.281L576.01 578.541C575.67 577.521 575.33 576.851 574.99 575.831L563.13 580.241C563.47 581.261 563.81 582.271 564.15 583.291V583.281ZM573.64 299.971C573.98 298.951 574.32 298.281 574.66 297.261L562.8 292.851L561.78 295.561L573.64 299.971ZM561.1 575.151L572.96 570.741L571.94 568.031L559.74 572.441L561.1 575.151ZM570.59 308.111C570.93 307.091 571.27 306.421 571.61 305.401L559.41 301.331L558.39 304.041L570.59 308.111ZM558.05 567.021L570.25 562.951C569.91 561.931 569.57 561.261 569.23 560.241L557.03 564.311C557.71 564.991 558.05 566.001 558.05 567.021ZM568.22 315.901C568.56 314.881 568.9 314.211 569.24 313.191L557.04 309.461C556.7 310.481 556.36 311.151 556.02 312.171L568.22 315.901ZM555.68 558.881L567.88 555.151L567.2 552.441L555 556.171C555 556.851 555.34 557.861 555.68 558.881ZM565.51 324.031C565.85 323.011 566.19 322.341 566.19 321.321L553.99 317.591C553.65 318.611 553.31 319.281 553.31 320.301L565.51 324.031ZM552.97 550.411L565.17 547.021C564.83 546.001 564.49 545.331 564.49 544.311L552.29 547.701C552.63 548.721 552.97 549.391 552.97 550.411ZM563.48 332.171C563.82 331.151 563.82 330.481 564.16 329.461L551.96 326.071C551.62 327.091 551.28 327.761 551.28 328.781L563.48 332.171ZM550.6 542.281L562.8 538.891C562.46 537.871 562.46 537.201 562.12 536.181L549.92 539.231L550.6 542.281ZM561.44 340.301C561.78 339.281 561.78 338.611 562.12 337.591L549.92 334.541C549.58 335.561 549.58 336.571 549.24 337.251L561.44 340.301ZM548.56 533.811L561.1 530.761C560.76 529.741 560.76 529.071 560.42 528.051L547.88 531.101C548.22 531.781 548.22 532.791 548.56 533.811ZM559.4 348.441L560.08 345.731L547.54 342.681C547.2 343.701 547.2 344.711 546.86 345.391L559.4 348.441ZM546.52 525.341L559.06 522.631C558.72 521.611 558.72 520.941 558.38 519.921L545.84 522.631C546.18 523.651 546.52 524.321 546.52 525.341ZM557.7 356.571C558.04 355.551 558.04 354.881 558.38 353.861L545.84 351.151L545.16 353.861L557.7 356.571ZM544.82 516.861L557.36 514.491C557.02 513.471 557.02 512.801 556.68 511.781L544.14 514.151C544.48 515.171 544.82 515.841 544.82 516.861ZM556 364.701L556.34 361.991L543.8 359.621C543.46 360.641 543.46 361.651 543.12 362.331L556 364.701ZM543.12 508.391L555.66 506.021C555.66 505.001 555.32 504.331 555.32 503.311L542.78 505.341C542.78 506.701 543.12 507.371 543.12 508.391ZM554.64 373.171C554.64 372.151 554.98 371.481 554.98 370.461L542.44 368.431C542.44 369.451 542.1 370.461 542.1 371.141L554.64 373.171ZM541.76 499.911L554.3 497.881C554.3 496.861 553.96 496.191 553.96 495.171L541.42 497.201L541.76 499.911ZM553.28 381.301L553.62 378.591L541.08 376.901C541.08 377.921 540.74 378.931 540.74 379.611L553.28 381.301ZM540.4 491.441L552.94 489.751C552.94 488.731 552.6 488.061 552.6 487.041L540.06 488.731C540.4 489.411 540.4 490.421 540.4 491.441ZM552.26 389.431C552.26 388.411 552.6 387.741 552.6 386.721L540.06 385.031L539.72 387.741L552.26 389.431ZM539.38 482.621L551.92 481.261C551.92 480.241 551.58 479.571 551.58 478.551L539.04 479.911L539.38 482.621ZM551.24 397.901L551.58 395.191L539.04 393.831C539.04 394.851 538.7 395.861 538.7 396.541L551.24 397.901ZM538.7 474.151L551.58 472.791C551.58 471.771 551.58 471.101 551.24 470.081L538.36 471.101C538.36 472.121 538.36 473.131 538.7 474.151ZM550.56 406.031C550.56 405.011 550.56 404.341 550.9 403.321L538.02 402.301C538.02 403.321 538.02 404.331 537.68 405.011L550.56 406.031ZM538.02 465.671L550.9 464.651L550.56 461.941L537.68 462.621C537.68 463.641 537.68 464.651 538.02 465.671ZM550.22 414.501V411.791L537.34 411.111V413.821L550.22 414.501ZM537.34 456.861L550.22 456.181V453.471L537.34 454.151V456.861ZM549.88 422.971V420.261L537 419.921V422.631L549.88 422.971ZM537 448.391L549.88 448.051V445.341L537 445.681V448.391ZM549.54 431.111V428.401L536.66 428.061V431.111H549.54ZM537 439.581H549.88V436.871H537C536.66 437.891 536.66 438.901 537 439.581Z" fill="white"/>
</g>
</g>
</g>
<path d="M1297.01 750.216C1297.98 749.285 1298.53 748.025 1298.57 746.726C1298.57 746.667 1298.57 746.59 1298.57 746.512L1298.51 735.149C1311.95 732.066 1324.78 726.888 1336.51 719.83L1345.11 727.974L1345.29 727.8L1345.11 728.013C1345.6 728.614 1346.18 729.079 1346.83 729.39C1347.47 729.7 1348.17 729.874 1348.85 729.874C1349.53 729.874 1350.24 729.7 1350.88 729.37C1351.5 729.041 1352.07 728.595 1352.55 728.013L1352.59 727.974L1386.32 695.009L1386.5 695.183C1386.99 694.718 1387.38 694.175 1387.65 693.574C1387.9 692.973 1388.04 692.333 1388.04 691.673C1388.04 691.014 1387.9 690.374 1387.63 689.773C1387.36 689.172 1386.97 688.629 1386.48 688.183L1378.14 679.67C1385.29 668.481 1390.49 656.226 1393.55 643.428L1405.6 643.37C1407.05 643.37 1408.43 642.807 1409.44 641.838C1410.45 640.849 1411.02 639.53 1411 638.134L1410.79 591.11C1410.79 589.733 1410.2 588.395 1409.19 587.425C1408.18 586.456 1406.77 585.913 1405.35 585.913L1393.49 585.971C1390.3 573.076 1384.96 560.782 1377.64 549.554L1386.01 541.332C1386.5 540.867 1386.89 540.324 1387.14 539.723C1387.4 539.122 1387.55 538.462 1387.53 537.803C1387.51 537.144 1387.4 536.484 1387.12 535.883C1386.85 535.282 1386.46 534.72 1385.97 534.274L1351.27 501.308C1350.8 500.843 1350.24 500.475 1349.59 500.223C1348.97 499.97 1348.29 499.835 1347.61 499.835C1346.92 499.835 1346.24 499.97 1345.62 500.223C1345.38 500.319 1345.15 500.435 1344.93 500.567C1344.58 500.782 1344.25 501.04 1343.94 501.328L1335.49 509.647C1323.77 502.743 1310.95 497.721 1297.55 494.774L1297.5 483.197C1297.5 481.82 1296.91 480.482 1295.9 479.513C1294.89 478.543 1293.5 478 1292.06 478L1243.26 478.213C1241.81 478.213 1240.43 478.776 1239.42 479.765C1238.41 480.754 1237.84 482.072 1237.84 483.468L1237.9 494.832C1224.44 497.915 1211.59 503.092 1199.84 510.151L1191.28 502.007C1190.81 501.541 1190.22 501.173 1189.6 500.921C1188.96 500.669 1188.3 500.533 1187.61 500.533C1186.93 500.533 1186.25 500.669 1185.63 500.921C1185 501.173 1184.44 501.561 1183.95 502.026L1149.6 535.321C1149.11 535.786 1148.72 536.329 1148.45 536.93C1148.2 537.531 1148.04 538.191 1148.06 538.85C1148.06 539.509 1148.2 540.169 1148.47 540.77C1148.74 541.371 1149.13 541.933 1149.62 542.379L1157.76 550.252C1150.75 561.422 1145.66 573.619 1142.68 586.34L1130.39 586.398C1128.95 586.398 1127.59 586.96 1126.58 587.949C1125.56 588.938 1125 590.257 1125 591.653L1125.21 638.677C1125.21 640.054 1125.8 641.392 1126.81 642.361C1127.82 643.331 1129.21 643.874 1130.65 643.874L1142.72 643.816C1145.92 656.73 1151.29 669.044 1158.65 680.271L1150.14 688.493C1149.66 688.959 1149.27 689.502 1148.99 690.103C1148.74 690.704 1148.6 691.363 1148.6 692.003C1148.6 692.662 1148.74 693.302 1149.01 693.903C1149.29 694.505 1149.68 695.048 1150.16 695.494L1184.85 728.459C1185.34 728.924 1185.9 729.312 1186.52 729.564C1187.17 729.816 1187.83 729.952 1188.51 729.952C1189.19 729.952 1189.87 729.816 1190.5 729.564C1191.12 729.312 1191.68 728.924 1192.17 728.459L1200.7 720.276C1212.5 727.218 1225.38 732.26 1238.85 735.226L1238.91 746.803C1238.91 748.18 1239.5 749.518 1240.51 750.487C1241.52 751.457 1242.92 752 1244.35 752L1293.15 751.787C1294.59 751.787 1295.96 751.224 1296.97 750.235L1297.01 750.216Z" stroke="#77C8D6" stroke-width="2" stroke-miterlimit="10"/>
</g>
<defs>
<linearGradient id="paint0_linear_1_712" x1="739.539" y1="934.063" x2="77.8249" y2="454.536" gradientUnits="userSpaceOnUse">
<stop offset="0.25" stop-color="#2C6CFF"/>
<stop offset="1" stop-color="#892A12"/>
</linearGradient>
<clipPath id="clip0_1_712">
<rect width="817" height="817" fill="white" transform="translate(0 286)"/>
</clipPath>
<clipPath id="clip1_1_712">
<rect width="872.23" height="871.82" fill="white" transform="translate(510)"/>
</clipPath>
</defs>
</svg>
