<svg width="119" height="198" viewBox="0 0 119 198" fill="none" xmlns="http://www.w3.org/2000/svg">
<path d="M236 11.9432L152.666 124.953L175.457 116.003L162.388 128.672L200.693 120.972L182.938 140.993L208.727 144.335L176.214 157.005L222.174 161.131L171.353 169.326L188.555 184.233L161.66 177.898L184.801 199.169L24.7698 197.106L64.8794 163.746L3.25972 166.71L72.7383 139.86L3.25972 106.675L68.6342 121.582L9.98335 59.6867L91.7743 111.528L74.2228 81.3065L104.872 107.053L80.9465 0L134.009 98.8289L236 11.9432Z" fill="#9C91C5"/>
<line x1="86.7031" y1="38.9345" x2="96.71" y2="77.9935" stroke="white"/>
<line x1="37.579" y1="171.802" x2="9.05395" y2="194.054" stroke="white"/>
<line x1="20.682" y1="97.9235" x2="0.867708" y2="92.4803" stroke="white"/>
</svg>
